; OM File Header - Saved 2023/10/27 23:11:17
; (6.16 :patc (om-make-point 24 24) (om-make-point 50 50) (om-make-point 500 360) "" 908 0 nil "2023/10/27 23:11:17")
; End File Header
; External resources 
; (list (list (quote :abstraction) "#P\"define environment for rules.omp\"" "#P\"dissonance-consonance rule.omp\""))
(in-package :om)(load-lib-for (quote nil))(setf *om-current-persistent* (om-load-patch1 "dissonance-consonance rule 2" (quote ((let ((box (om-load-boxout "output" 0 (om-make-point 255 242) (quote ((om-load-inputfun (quote input-funbox) "" "out" nil))) nil nil))) (when (fboundp (quote set-active)) (set-active box nil)) box) (let ((box (om-load-boxin "input" 0 (om-make-point 50 50) "" nil nil nil))) (when (fboundp (quote set-active)) (set-active box nil)) box) (let ((box (om-load-boxcall (quote patch-box) "define environment for rules" (quote ("elements" "strict polyphonic voice-motion" "define environment for rules")) (quote ((om-load-inputfun (quote input-funbox) "" "voice1 and voice2" (list (list (list 60 64) 67 60) (list 72 71 72))))) (om-make-point 803 73) nil nil nil nil 8))) (when (fboundp (quote set-active)) (set-active box nil)) box) (let ((box (om-load-boxcall (quote patch-box) "dissonance-consonance rule 2" (quote ("elements" "strict polyphonic voice-motion" "dissonance-consonance rule")) (quote ((om-load-inputfun (quote input-funbox) "" "cf" nil) (om-load-inputfun (quote input-funbox) "" "voice2" nil) (om-load-inputfun (quote input-funbox) "" "vertical-intervals" nil) (om-load-inputfun (quote input-funbox) "" "voice-intervals" nil) (om-load-inputfun (quote input-funbox) "" "vertical-intervals%12" nil) (om-load-inputfun (quote input-funbox) "" "horizontal-intervals%12" nil) (om-load-inputfun (quote input-funbox) "" "horizontal-intervals-scale-degrees" nil) (om-load-inputfun (quote input-funbox) "" "input" nil))) (om-make-point 805 160) nil nil nil nil 1))) (when (fboundp (quote set-active)) (set-active box nil)) box))) (quote ((3 0 0 0 nil 0) (1 0 2 0 nil 0) (2 0 3 0 nil 0) (2 1 3 1 nil 0) (2 2 3 2 nil 0) (2 3 3 3 nil 0) (2 4 3 4 nil 0) (2 5 3 5 nil 0) (2 6 3 6 nil 0) (2 7 3 7 nil 0))) nil 6.16))