; OM File Header - Saved 2022/12/24 22:52:32
; (6.16 :patc (om-make-point 24 24) (om-make-point 50 50) (om-make-point 500 427) "" 908 0 nil "2022/12/21 4:45:00")
; End File Header
(in-package :om)(load-lib-for (quote ("myextension")))(setf *om-current-persistent* (om-load-patch1 "interval limit over previous two leaps" (quote ((let ((box (om-load-boxcall (quote genfun) "MAP?AND" (quote map?and) (quote ((om-load-inputfun (quote input-funbox) "" "FN" nil) (om-load-inputfun (quote input-funbox) "" "LIST" nil))) (om-make-point 154 164) nil nil nil nil 1))) (when (fboundp (quote set-active)) (set-active box nil)) box) (let ((box (om-load-boxcall (quote bastype) "aux" (quote t) (quote nil) (om-make-point 342 84) (om-make-point 26 28) 9 "9" nil))) (when (fboundp (quote set-active)) (set-active box nil)) box) (let ((box (om-load-boxcall (quote genfun) "OMOR" (quote omor) (quote ((om-load-inputfun (quote input-funbox) "something" "SELF" nil) (om-load-inputfun (quote input-funbox) "other things" "REST" nil))) (om-make-point 332 114) nil nil nil nil 1))) (when (fboundp (quote set-active)) (set-active box nil)) box) (let ((box (om-load-boxin "limit" 1 (om-make-point 313 47) "" "limit" nil nil))) (when (fboundp (quote set-active)) (set-active box nil)) box) (let ((box (om-load-boxcall (quote abstraction) "mypatch" (om-load-patch-abs1 "mypatch" (quote ((let ((box (om-load-boxcall (quote genfun) "?LIST<=" (quote ?list<=) (quote ((om-load-inputfun (quote input-funbox) "" "XS" nil) (om-load-inputfun (quote input-funbox) "" "VALUE" nil))) (om-make-point 208 296) nil nil nil nil 1))) (when (fboundp (quote set-active)) (set-active box nil)) box) (let ((box (om-load-boxcall (quote lispfun) "OM+V 2" (quote t2l::om+v) (quote ((om-load-inputfun (quote input-funbox) "add-input" "add-input" nil))) (om-make-point 171 135) nil nil "l" nil 1))) (when (fboundp (quote set-active)) (set-active box nil)) box) (let ((box (om-load-boxcall (quote bastype) "aux 2" (quote t) (quote nil) (om-make-point 150 49) (om-make-point 26 28) 1 "1" nil))) (when (fboundp (quote set-active)) (set-active box nil)) box) (let ((box (om-load-boxcall (quote bastype) "aux" (quote t) (quote nil) (om-make-point 141 49) (om-make-point 26 28) 3 "3" nil))) (when (fboundp (quote set-active)) (set-active box nil)) box) (let ((box (om-load-boxcall (quote genfun) "NSUCC 2" (quote nsucc) (quote ((om-load-inputfun (quote input-funbox) "" "INPUT" nil) (om-load-inputfun (quote input-funbox) "" "N" nil) (om-load-inputkeyword (quote input-keyword) "" "step" (quote :step) nil nil))) (om-make-point 127 79) nil nil nil nil 1))) (when (fboundp (quote set-active)) (set-active box nil)) box) (let ((box (om-load-boxcall (quote lispfun) "LISTDXV" (quote t2l::listdxv) (quote ((om-load-inputfun (quote input-funbox) "LIST" "LIST" nil))) (om-make-point 197 55) nil nil "l" nil 1))) (when (fboundp (quote set-active)) (set-active box nil)) box) (let ((box (om-load-boxcall (quote lispfun) "MAPCAR 3" (quote mapcar) (quote ((om-load-inputfun (quote input-funbox) "FUNCTION" "FUNCTION" nil) (om-load-inputfun (quote input-funbox) "LIST" "LIST" nil))) (om-make-point 212 102) nil nil nil nil 1))) (when (fboundp (quote set-active)) (set-active box nil)) box) (let ((box (om-load-boxin "limit" 1 (om-make-point 269 232) "" "limit" nil nil))) (when (fboundp (quote set-active)) (set-active box nil)) box) (let ((box (om-load-boxcall (quote lispfun) "ABSV" (quote t2l::absv) (quote ((om-load-inputfun (quote input-funbox) "K" "K" nil))) (om-make-point 150 189) nil nil "l" nil 1))) (when (fboundp (quote set-active)) (set-active box nil)) box) (let ((box (om-load-boxcall (quote lispfun) "MAPCAR 2" (quote mapcar) (quote ((om-load-inputfun (quote input-funbox) "FUNCTION" "FUNCTION" nil) (om-load-inputfun (quote input-funbox) "LIST" "LIST" nil))) (om-make-point 162 235) nil nil nil nil 1))) (when (fboundp (quote set-active)) (set-active box nil)) box) (let ((box (om-load-boxcall (quote lispfun) "MAPCAR" (quote mapcar) (quote ((om-load-inputfun (quote input-funbox) "FUNCTION" "FUNCTION" nil) (om-load-inputfun (quote input-funbox) "LIST" "LIST" nil))) (om-make-point 188 180) nil nil nil nil 1))) (when (fboundp (quote set-active)) (set-active box nil)) box) (let ((box (om-load-boxcall (quote genfun) "FLAT" (quote flat) (quote ((om-load-inputfun (quote input-funbox) "a list" "LST" nil))) (om-make-point 68 71) nil nil nil nil 1))) (when (fboundp (quote set-active)) (set-active box nil)) box) (let ((box (om-load-boxout "output" 0 (om-make-point 5 400) (quote ((om-load-inputfun (quote input-funbox) "" "out" nil))) nil nil))) (when (fboundp (quote set-active)) (set-active box nil)) box) (let ((box (om-load-boxin "input" 0 (om-make-point 5 45) "" nil nil nil))) (when (fboundp (quote set-active)) (set-active box nil)) box))) (quote ((9 0 0 0 nil 0) (7 0 0 1 nil 0) (11 0 4 0 nil 0) (3 0 4 1 nil 0) (2 0 4 2 nil 0) (5 0 6 0 nil 0) (4 0 6 1 nil 0) (8 0 9 0 nil 0) (10 0 9 1 nil 0) (1 0 10 0 nil 0) (6 0 10 1 nil 0) (13 0 11 0 nil 0) (0 0 12 0 nil 0))) 6.16 nil "" (om-make-point 200 200) (om-make-point 500 340)) (quote ((om-load-inputfun (quote input-funbox) "" "input" nil) (om-load-inputfun (quote input-funbox) "" "input 2" nil))) (om-make-point 114 87) nil nil "l" nil))) (when (fboundp (quote set-active)) (set-active box nil)) box) (let ((box (om-load-boxout "output" 0 (om-make-point 5 370) (quote ((om-load-inputfun (quote input-funbox) "" "out" nil))) nil nil))) (when (fboundp (quote set-active)) (set-active box nil)) box) (let ((box (om-load-boxin "input" 0 (om-make-point 5 45) "" nil nil nil))) (when (fboundp (quote set-active)) (set-active box nil)) box))) (quote ((4 0 0 0 nil 0) (6 0 0 1 nil 0) (3 0 2 0 nil 0) (1 0 2 1 nil 0) (2 0 4 1 nil 0) (0 0 5 0 nil 0))) nil 6.16))
