; OM File Header - Saved 2022/12/25 00:16:02
; (7.02 :patc (om-make-point 626.9844 250) (om-make-point 50 50) (om-make-point 862 309) "" 908 0 "2021/06/06 13:51:55" "2022/12/25 00:16:02")
; End File Header
(in-package :om)(load-lib-for (quote nil))(setf *om-current-persistent* (om-load-patch1 "interval leap limit" (quote ((let ((box (om-load-boxcall (quote bastype) "aux 2" (quote t) (quote nil) (om-make-point 213 276) (om-make-point 26 28) 8 "8" nil))) (when (fboundp (quote set-active)) (set-active box nil)) box) (let ((box (let ((newbox (om-load-boxcall (quote genfun) "LIST<=V" (quote t2l::list<=v) (quote ((om-load-inputfun (quote input-funbox) "" "XS" nil) (om-load-inputfun (quote input-funbox) "" "VALUE" nil))) (om-make-point 187 306) nil nil nil nil 1))) (setf (frame-position newbox) (om-make-point 187 306)) newbox))) (when (fboundp (quote set-active)) (set-active box nil)) box) (let ((box (om-load-boxcall (quote lispfun) "MAPCAR" (quote mapcar) (quote ((om-load-inputfun (quote input-funbox) "FUNCTION" "FUNCTION" nil) (om-load-inputfun (quote input-funbox) "LIST" "LIST" nil))) (om-make-point 150 254) nil nil nil nil 1))) (when (fboundp (quote set-active)) (set-active box nil)) box) (let ((box (om-load-boxcall (quote lispfun) "ABSV" (quote t2l::absv) (quote ((om-load-inputfun (quote input-funbox) "K" "K" nil))) (om-make-point 124 203) nil nil "l" nil 1))) (when (fboundp (quote set-active)) (set-active box nil)) box) (let ((box (om-load-boxcall (quote bastype) "aux" (quote t) (quote nil) (om-make-point 184 175) (om-make-point 31 28) nil "nil" nil))) (when (fboundp (quote set-active)) (set-active box nil)) box) (let ((box (om-load-boxcall (quote lispfun) "REMOVE" (quote remove) (quote ((om-load-inputfun (quote input-funbox) "ITEM" "ITEM" nil) (om-load-inputfun (quote input-funbox) "SEQUENCE" "SEQUENCE" nil))) (om-make-point 173 205) nil nil nil nil 1))) (when (fboundp (quote set-active)) (set-active box nil)) box) (let ((box (om-load-boxcall (quote genfun) "FLAT" (quote flat) (quote ((om-load-inputfun (quote input-funbox) "a list" "LST" nil))) (om-make-point 243 131) nil nil nil nil 1))) (when (fboundp (quote set-active)) (set-active box nil)) box) (let ((box (om-load-boxin "input" 7 (om-make-point 805 45) "" nil nil nil))) (when (fboundp (quote set-active)) (set-active box nil)) box) (let ((box (om-load-boxout "output" 0 (om-make-point 96 395) (quote ((om-load-inputfun (quote input-funbox) "" "out" nil))) "output" nil))) (when (fboundp (quote set-active)) (set-active box nil)) box) (let ((box (om-load-boxin "horizontal-intervals-scale-degrees" 6 (om-make-point 605 45) "" "horizontal-intervals-scale-degrees" nil nil))) (when (fboundp (quote set-active)) (set-active box nil)) box) (let ((box (om-load-boxin "vertical-intervals-scale-degrees" 5 (om-make-point 425 45) "" "vertical-intervals-scale-degrees" nil nil))) (when (fboundp (quote set-active)) (set-active box nil)) box) (let ((box (om-load-boxin "vertical-intervals%12" 4 (om-make-point 305 45) "" "vertical-intervals%12" nil nil))) (when (fboundp (quote set-active)) (set-active box nil)) box) (let ((box (om-load-boxin "voice-intervals" 3 (om-make-point 215 45) "" "voice-intervals" nil nil))) (when (fboundp (quote set-active)) (set-active box nil)) box) (let ((box (om-load-boxin "vertical-intervals" 2 (om-make-point 105 45) "" "vertical-intervals" nil nil))) (when (fboundp (quote set-active)) (set-active box nil)) box) (let ((box (om-load-boxin "voice2" 1 (om-make-point 55 45) "" "voice2" nil nil))) (when (fboundp (quote set-active)) (set-active box nil)) box) (let ((box (om-load-boxin "cf" 0 (om-make-point 5 45) "" "cf" nil nil))) (when (fboundp (quote set-active)) (set-active box nil)) box))) (quote ((2 0 1 0 nil 0) (0 0 1 1 nil 0) (3 0 2 0 nil 0) (5 0 2 1 nil 0) (4 0 5 0 nil 0) (6 0 5 1 nil 0) (12 0 6 0 nil 0) (1 0 8 0 nil 0))) nil 7.02))
