; OM File Header - Saved 2023/10/26 21:14:22
; (6.16 :patc (om-make-point 10 10) (om-make-point 50 50) (om-make-point 384 340) "" 908 0 "2023/10/26 20:51:57" "2023/10/26 21:13:19")
; End File Header
(in-package :om)(load-lib-for (quote ("myextension")))(setf *om-current-persistent* (om-load-patch1 "is a skip" (quote ((let ((box (om-load-boxcall (quote bastype) "aux 2" (quote t) (quote nil) (om-make-point 149 160) (om-make-point 26 28) 5 "5" nil))) (when (fboundp (quote set-active)) (set-active box nil)) box) (let ((box (om-load-boxcall (quote bastype) "aux" (quote t) (quote nil) (om-make-point 115 160) (om-make-point 26 28) 3 "3" nil))) (when (fboundp (quote set-active)) (set-active box nil)) box) (let ((box (om-load-boxcall (quote genfun) "?ABS" (quote ?abs) (quote ((om-load-inputfun (quote input-funbox) "" "K" nil))) (om-make-point 77 154) nil nil nil nil 1))) (when (fboundp (quote set-active)) (set-active box nil)) box) (let ((box (om-load-boxcall (quote genfun) "?BETWEEN" (quote ?between) (quote ((om-load-inputfun (quote input-funbox) "" "X" nil) (om-load-inputfun (quote input-funbox) "" "MIN" nil) (om-load-inputfun (quote input-funbox) "" "MAX" nil))) (om-make-point 91 190) nil nil nil nil 1))) (when (fboundp (quote set-active)) (set-active box nil)) box) (let ((box (om-load-boxcall (quote genfun) "?-" (quote ?-) (quote ((om-load-inputfun (quote input-funbox) "" "X" nil) (om-load-inputfun (quote input-funbox) "" "XS" nil))) (om-make-point 49 98) nil nil nil nil 1))) (when (fboundp (quote set-active)) (set-active box nil)) box) (let ((box (om-load-boxout "output" 0 (om-make-point 33 261) (quote ((om-load-inputfun (quote input-funbox) "" "out" nil))) nil nil))) (when (fboundp (quote set-active)) (set-active box nil)) box) (let ((box (om-load-boxin "x2" 1 (om-make-point 75 35) "" "x2" nil nil))) (when (fboundp (quote set-active)) (set-active box nil)) box) (let ((box (om-load-boxin "x1" 0 (om-make-point 28 35) "" "x1" nil nil))) (when (fboundp (quote set-active)) (set-active box nil)) box))) (quote ((4 0 2 0 nil 0) (2 0 3 0 nil 0) (1 0 3 1 nil 0) (0 0 3 2 nil 0) (7 0 4 0 nil 0) (6 0 4 1 nil 0) (3 0 5 0 nil 0))) nil 6.16))
