; OM File Header - Saved 2022/12/11 23:02:15
; (6.16 :patc (om-make-point 10 210) (om-make-point 648 65) (om-make-point 474 509) "" 183 0 "2022/11/27 3:19:34" "2022/11/27 11:04:01")
; End File Header
(in-package :om)(load-lib-for (quote ("myextension")))(setf *om-current-persistent* (om-load-patch1 "is a triad" (quote ((let ((box (om-load-boxcall (quote genfun) "MAP-ORV" (quote t2l::map-orv) (quote ((om-load-inputfun (quote input-funbox) "" "FN" nil) (om-load-inputfun (quote input-funbox) "" "LIST" nil))) (om-make-point 191 334) nil nil nil nil 1))) (when (fboundp (quote set-active)) (set-active box nil)) box) (let ((box (om-load-boxcall (quote abstraction) "all transposition levels" (om-load-lisp-abspatch "all transposition levels" 6.16 ";;; Edit a valid LAMBDA EXPRESSION for \"lispfunction\"$;;; e.g. (lambda (arg1 arg2 ...) ( ... ))$$(lambda (pcset)$  (mapcar #'(lambda (transposition-level)$              (mapcar #'(lambda (x) (mod x 12))$                      (om+ pcset transposition-level)))$  (arithm-ser 0 11 1)))") (quote ((om-load-inputfun (quote input-funbox) "" "PCSET" nil))) (om-make-point 280 148) nil (list (list (list 0 4 7) (list 1 5 8) (list 2 6 9) (list 3 7 10) (list 4 8 11) (list 5 9 0) (list 6 10 1) (list 7 11 2) (list 8 0 3) (list 9 1 4) (list 10 2 5) (list 11 3 6))) nil "all transposition levels"))) (when (fboundp (quote set-active)) (set-active box nil)) box) (let ((box (om-load-boxin "pcset" 1 (om-make-point 347 28) "" "pcset" (list 0 4 7) nil))) (when (fboundp (quote set-active)) (set-active box nil)) box) (let ((box (om-load-boxcall (quote lispfun) "REMOVE" (quote remove) (quote ((om-load-inputfun (quote input-funbox) "ITEM" "ITEM" nil) (om-load-inputfun (quote input-funbox) "SEQUENCE" "SEQUENCE" nil))) (om-make-point 104 127) nil nil nil nil 1))) (when (fboundp (quote set-active)) (set-active box nil)) box) (let ((box (om-load-boxcall (quote bastype) "aux" (quote t) (quote nil) (om-make-point 115 97) (om-make-point 31 28) nil "nil" nil))) (when (fboundp (quote set-active)) (set-active box nil)) box) (let ((box (om-load-boxcall (quote abstraction) "the 3rd or 5th can be omitted" (om-load-patch-abs1 "the 3rd or 5th can be omitted" (quote ((let ((box (om-load-boxcall (quote genfun) "MEMBER-OF-NUMBER-SEQUENCEV 3" (quote t2l::member-of-number-sequencev) (quote ((om-load-inputfun (quote input-funbox) "" "X" nil) (om-load-inputfun (quote input-funbox) "" "SEQUENCE" nil))) (om-make-point 464 199) nil nil nil nil 1))) (when (fboundp (quote set-active)) (set-active box nil)) box) (let ((box (om-load-boxcall (quote genfun) "MEMBER-OF-NUMBER-SEQUENCEV 2" (quote t2l::member-of-number-sequencev) (quote ((om-load-inputfun (quote input-funbox) "" "X" nil) (om-load-inputfun (quote input-funbox) "" "SEQUENCE" nil))) (om-make-point 303 199) nil nil nil nil 1))) (when (fboundp (quote set-active)) (set-active box nil)) box) (let ((box (om-load-boxcall (quote genfun) "MEMBER-OF-NUMBER-SEQUENCEV" (quote t2l::member-of-number-sequencev) (quote ((om-load-inputfun (quote input-funbox) "" "X" nil) (om-load-inputfun (quote input-funbox) "" "SEQUENCE" nil))) (om-make-point 163 199) nil nil nil nil 1))) (when (fboundp (quote set-active)) (set-active box nil)) box) (let ((box (om-load-boxout "output" 0 (om-make-point 52 407) (quote ((om-load-inputfun (quote input-funbox) "" "out" nil))) nil nil))) (when (fboundp (quote set-active)) (set-active box nil)) box) (let ((box (om-load-boxin "pcset" 1 (om-make-point 401 50) "" "pcset" nil nil))) (when (fboundp (quote set-active)) (set-active box nil)) box) (let ((box (om-load-boxin "input" 0 (om-make-point 100 50) "" "input" nil nil))) (when (fboundp (quote set-active)) (set-active box nil)) box) (let ((box (om-load-boxcall (quote genfun) "ALL-INTEGER-ITEMS-INV" (quote t2l::all-integer-items-inv) (quote ((om-load-inputfun (quote input-funbox) "" "LIST" nil) (om-load-inputfun (quote input-funbox) "" "SEQUENCE" nil))) (om-make-point 59 147) nil nil nil nil 1))) (when (fboundp (quote set-active)) (set-active box nil)) box) (let ((box (om-load-boxcall (quote lispfun) "CAR" (quote car) (quote ((om-load-inputfun (quote input-funbox) "X" "X" nil))) (om-make-point 193 149) nil nil nil nil 1))) (when (fboundp (quote set-active)) (set-active box nil)) box) (let ((box (om-load-boxcall (quote lispfun) "CADR" (quote cadr) (quote ((om-load-inputfun (quote input-funbox) "X" "X" nil))) (om-make-point 329 148) nil nil nil nil 1))) (when (fboundp (quote set-active)) (set-active box nil)) box) (let ((box (om-load-boxcall (quote lispfun) "CADDR" (quote caddr) (quote ((om-load-inputfun (quote input-funbox) "X" "X" nil))) (om-make-point 483 147) nil nil nil nil 1))) (when (fboundp (quote set-active)) (set-active box nil)) box) (let ((box (om-load-boxcall (quote genfun) "OMORV" (quote t2l::omorv) (quote ((om-load-inputfun (quote input-funbox) "" "XS" nil) (om-load-inputfun (quote input-funbox) "" "XS" nil))) (om-make-point 420 263) nil nil nil nil 1))) (when (fboundp (quote set-active)) (set-active box nil)) box) (let ((box (om-load-boxcall (quote genfun) "OMANDV" (quote t2l::omandv) (quote ((om-load-inputfun (quote input-funbox) "" "XS" nil) (om-load-inputfun (quote input-funbox) "" "XS" nil) (om-load-inputfun (quote input-funbox) "" "XS" nil))) (om-make-point 218 327) nil nil nil nil 1))) (when (fboundp (quote set-active)) (set-active box nil)) box))) (quote ((9 0 0 0 nil 0) (5 0 0 1 nil 0) (8 0 1 0 nil 0) (5 0 1 1 nil 0) (7 0 2 0 nil 0) (5 0 2 1 nil 0) (11 0 3 0 nil 0) (5 0 6 0 nil 0) (4 0 6 1 nil 0) (4 0 7 0 nil 0) (4 0 8 0 nil 0) (4 0 9 0 nil 0) (1 0 10 0 nil 0) (0 0 10 1 nil 0) (6 0 11 0 nil 0) (2 0 11 1 nil 0) (10 0 11 2 nil 0))) 6.16 nil "" (om-make-point 200 200) (om-make-point 500 400)) (quote ((om-load-inputfun (quote input-funbox) "" "input" nil) (om-load-inputfun (quote input-funbox) "" "input 2" nil))) (om-make-point 2825/9 793/3) nil nil nil "the 3rd or 5th can be omitted"))) (when (fboundp (quote set-active)) (set-active box nil)) box) (let ((box (om-load-boxcall (quote abstraction) "the third cant be omitted" (om-load-patch-abs1 "the third cant be omitted" (quote ((let ((box (om-load-boxcall (quote genfun) "MEMBER-OF-NUMBER-SEQUENCEV 3" (quote t2l::member-of-number-sequencev) (quote ((om-load-inputfun (quote input-funbox) "" "X" nil) (om-load-inputfun (quote input-funbox) "" "SEQUENCE" nil))) (om-make-point 464 199) nil nil nil nil 1))) (when (fboundp (quote set-active)) (set-active box nil)) box) (let ((box (om-load-boxcall (quote genfun) "MEMBER-OF-NUMBER-SEQUENCEV 2" (quote t2l::member-of-number-sequencev) (quote ((om-load-inputfun (quote input-funbox) "" "X" nil) (om-load-inputfun (quote input-funbox) "" "SEQUENCE" nil))) (om-make-point 303 199) nil nil nil nil 1))) (when (fboundp (quote set-active)) (set-active box nil)) box) (let ((box (om-load-boxcall (quote genfun) "MEMBER-OF-NUMBER-SEQUENCEV" (quote t2l::member-of-number-sequencev) (quote ((om-load-inputfun (quote input-funbox) "" "X" nil) (om-load-inputfun (quote input-funbox) "" "SEQUENCE" nil))) (om-make-point 163 199) nil nil nil nil 1))) (when (fboundp (quote set-active)) (set-active box nil)) box) (let ((box (om-load-boxout "output" 0 (om-make-point 52 407) (quote ((om-load-inputfun (quote input-funbox) "" "out" nil))) nil nil))) (when (fboundp (quote set-active)) (set-active box nil)) box) (let ((box (om-load-boxin "pcset" 1 (om-make-point 401 50) "" "pcset" nil nil))) (when (fboundp (quote set-active)) (set-active box nil)) box) (let ((box (om-load-boxin "input" 0 (om-make-point 100 50) "" "input" nil nil))) (when (fboundp (quote set-active)) (set-active box nil)) box) (let ((box (om-load-boxcall (quote genfun) "ALL-INTEGER-ITEMS-INV" (quote t2l::all-integer-items-inv) (quote ((om-load-inputfun (quote input-funbox) "" "LIST" nil) (om-load-inputfun (quote input-funbox) "" "SEQUENCE" nil))) (om-make-point 59 147) nil nil nil nil 1))) (when (fboundp (quote set-active)) (set-active box nil)) box) (let ((box (om-load-boxcall (quote lispfun) "CAR" (quote car) (quote ((om-load-inputfun (quote input-funbox) "X" "X" nil))) (om-make-point 193 149) nil nil nil nil 1))) (when (fboundp (quote set-active)) (set-active box nil)) box) (let ((box (om-load-boxcall (quote lispfun) "CADR" (quote cadr) (quote ((om-load-inputfun (quote input-funbox) "X" "X" nil))) (om-make-point 329 148) nil nil nil nil 1))) (when (fboundp (quote set-active)) (set-active box nil)) box) (let ((box (om-load-boxcall (quote lispfun) "CADDR" (quote caddr) (quote ((om-load-inputfun (quote input-funbox) "X" "X" nil))) (om-make-point 483 147) nil nil nil nil 1))) (when (fboundp (quote set-active)) (set-active box nil)) box) (let ((box (om-load-boxcall (quote genfun) "OMORV" (quote t2l::omorv) (quote ((om-load-inputfun (quote input-funbox) "" "XS" nil) (om-load-inputfun (quote input-funbox) "" "XS" nil))) (om-make-point 420 263) nil nil nil nil 1))) (when (fboundp (quote set-active)) (set-active box nil)) box) (let ((box (om-load-boxcall (quote genfun) "OMANDV" (quote t2l::omandv) (quote ((om-load-inputfun (quote input-funbox) "" "XS" nil) (om-load-inputfun (quote input-funbox) "" "XS" nil) (om-load-inputfun (quote input-funbox) "" "XS" nil))) (om-make-point 218 327) nil nil nil nil 1))) (when (fboundp (quote set-active)) (set-active box nil)) box))) (quote ((9 0 0 0 nil 0) (5 0 0 1 nil 0) (8 0 1 0 nil 0) (5 0 1 1 nil 0) (7 0 2 0 nil 0) (5 0 2 1 nil 0) (11 0 3 0 nil 0) (5 0 6 0 nil 0) (4 0 6 1 nil 0) (4 0 7 0 nil 0) (4 0 8 0 nil 0) (4 0 9 0 nil 0) (1 0 10 0 nil 0) (0 0 10 1 nil 0) (6 0 11 0 nil 0) (2 0 11 1 nil 0) (1 0 11 2 nil 0))) 6.16 nil "" (om-make-point 423 49) (om-make-point 689 493)) (quote ((om-load-inputfun (quote input-funbox) "" "input" nil) (om-load-inputfun (quote input-funbox) "" "input 2" nil))) (om-make-point 935/9 733/3) nil (list nil) "l" "the third cant be omitted"))) (when (fboundp (quote set-active)) (set-active box nil)) box) (let ((box (om-load-boxout "output" 0 (om-make-point 30 379) (quote ((om-load-inputfun (quote input-funbox) "" "out" nil))) nil nil))) (when (fboundp (quote set-active)) (set-active box nil)) box) (let ((box (om-load-boxin "input" 0 (om-make-point 5 45) "" nil (list 62 66 69) nil))) (when (fboundp (quote set-active)) (set-active box nil)) box))) (quote ((6 0 0 0 nil 0) (1 0 0 1 nil 0) (2 0 1 0 nil 0) (4 0 3 0 nil 0) (8 0 3 1 nil 0) (3 0 6 0 nil 0) (0 0 7 0 nil 0))) nil 6.16))
