; OM File Header - Saved 2023/10/27 23:11:17
; (6.16 :patc (om-make-point 10 10) (om-make-point 50 50) (om-make-point 500 302) "" 908 0 "2022/10/07 1:00:10" "2023/10/27 23:11:17")
; End File Header
(in-package :om)(load-lib-for (quote ("myextension")))(setf *om-current-persistent* (om-load-patch1 "is a leap" (quote ((let ((box (om-load-boxcall (quote bastype) "aux" (quote t) (quote nil) (om-make-point 119 178) (om-make-point 26 28) 7 "7" nil))) (when (fboundp (quote set-active)) (set-active box nil)) box) (let ((box (om-load-boxcall (quote genfun) "?>=" (quote ?>=) (quote ((om-load-inputfun (quote input-funbox) "" "X" nil) (om-load-inputfun (quote input-funbox) "" "Y" nil))) (om-make-point 103 208) nil nil nil nil 1))) (when (fboundp (quote set-active)) (set-active box nil)) box) (let ((box (om-load-boxcall (quote genfun) "?ABS" (quote ?abs) (quote ((om-load-inputfun (quote input-funbox) "" "K" nil))) (om-make-point 84 162) nil nil nil nil 1))) (when (fboundp (quote set-active)) (set-active box nil)) box) (let ((box (om-load-boxcall (quote genfun) "?-" (quote ?-) (quote ((om-load-inputfun (quote input-funbox) "" "X" nil) (om-load-inputfun (quote input-funbox) "" "XS" nil))) (om-make-point 56 106) nil nil nil nil 1))) (when (fboundp (quote set-active)) (set-active box nil)) box) (let ((box (om-load-boxout "output" 0 (om-make-point 33 271) (quote ((om-load-inputfun (quote input-funbox) "" "out" nil))) nil nil))) (when (fboundp (quote set-active)) (set-active box nil)) box) (let ((box (om-load-boxin "x2" 1 (om-make-point 95 35) "" "x2" nil nil))) (when (fboundp (quote set-active)) (set-active box nil)) box) (let ((box (om-load-boxin "x1" 0 (om-make-point 28 35) "" "x1" nil nil))) (when (fboundp (quote set-active)) (set-active box nil)) box))) (quote ((2 0 1 0 nil 0) (0 0 1 1 nil 0) (3 0 2 0 nil 0) (6 0 3 0 nil 0) (5 0 3 1 nil 0) (1 0 4 0 nil 0))) nil 6.16))