; OM File Header - Saved 2022/12/27 3:02:11
; (6.16 :patc (om-make-point 10 160) (om-make-point 601 63) (om-make-point 486 414) "" 908 0 "2022/12/16 20:28:05" "2022/12/27 0:15:43")
; End File Header
(in-package :om)(load-lib-for (quote ("myextension")))(setf *om-current-persistent* (om-load-patch1 "is open and not unison" (quote ((let ((box (om-load-boxcall (quote bastype) "aux 3" (quote t) (quote nil) (om-make-point 171 258) (om-make-point 26 28) (quote t) "T" nil))) (when (fboundp (quote set-active)) (set-active box nil)) box) (let ((box (om-load-boxcall (quote genfun) "?AND" (quote ?and) (quote ((om-load-inputfun (quote input-funbox) "" "XS" nil) (om-load-inputfun (quote input-funbox) "" "XS" nil))) (om-make-point 175 361) nil nil nil nil 1))) (when (fboundp (quote set-active)) (set-active box nil)) box) (let ((box (om-load-boxcall (quote genfun) "?/=" (quote ?/=) (quote ((om-load-inputfun (quote input-funbox) "" "XS" nil) (om-load-inputfun (quote input-funbox) "" "XS" nil))) (om-make-point 245 128) nil nil nil nil 1))) (when (fboundp (quote set-active)) (set-active box nil)) box) (let ((box (om-load-boxcall (quote bastype) "aux" (quote t) (quote nil) (om-make-point 137 232) (om-make-point 55 28) (list 0 5 7) "(0 5 7)" nil))) (when (fboundp (quote set-active)) (set-active box nil)) box) (let ((box (om-load-boxcall (quote genfun) "?ITEMS-IN" (quote ?items-in) (quote ((om-load-inputfun (quote input-funbox) "" "LIST" nil) (om-load-inputfun (quote input-funbox) "" "SEQUENCE" nil) (om-load-inputkeyword (quote input-keyword) "" "numeric" (quote :numeric) nil nil))) (om-make-point 133 288) nil nil nil nil 1))) (when (fboundp (quote set-active)) (set-active box nil)) box) (let ((box (om-load-boxcall (quote bastype) "aux 2" (quote t) (quote nil) (om-make-point 118 189) (om-make-point 32 28) 12 "12" nil))) (when (fboundp (quote set-active)) (set-active box nil)) box) (let ((box (om-load-boxcall (quote genfun) "?%" (quote ?%) (quote ((om-load-inputfun (quote input-funbox) "" "N" nil) (om-load-inputfun (quote input-funbox) "" "D" nil))) (om-make-point 106 219) nil nil nil nil 1))) (when (fboundp (quote set-active)) (set-active box nil)) box) (let ((box (om-load-boxcall (quote genfun) "?ABS" (quote ?abs) (quote ((om-load-inputfun (quote input-funbox) "" "K" nil))) (om-make-point 96 168) nil nil nil nil 1))) (when (fboundp (quote set-active)) (set-active box nil)) box) (let ((box (om-load-boxcall (quote genfun) "?-" (quote ?-) (quote ((om-load-inputfun (quote input-funbox) "" "X" nil) (om-load-inputfun (quote input-funbox) "" "XS" nil))) (om-make-point 76 112) (om-make-point 74 50) nil nil nil 1))) (when (fboundp (quote set-active)) (set-active box nil)) box) (let ((box (om-load-boxin "y" 1 (om-make-point 55 45) "" "y" 60 nil))) (when (fboundp (quote set-active)) (set-active box nil)) box) (let ((box (om-load-boxin "x" 0 (om-make-point 172 46) "" "x" 67 nil))) (when (fboundp (quote set-active)) (set-active box nil)) box) (let ((box (om-load-boxout "output" 0 (om-make-point 64 412) (quote ((om-load-inputfun (quote input-funbox) "" "out" nil))) nil nil))) (when (fboundp (quote set-active)) (set-active box nil)) box))) (quote ((4 0 1 0 nil 0) (2 0 1 1 nil 0) (10 0 2 0 nil 0) (9 0 2 1 nil 0) (6 0 4 0 nil 0) (3 0 4 1 nil 0) (0 0 4 2 nil 0) (7 0 6 0 nil 0) (5 0 6 1 nil 0) (8 0 7 0 nil 0) (9 0 8 0 nil 0) (10 0 8 1 nil 0) (1 0 11 0 nil 0))) nil 6.16))
