; OM File Header - Saved 2023/10/27 23:11:17
; (6.16 :patc (om-make-point 603.9844 610) (om-make-point 50 50) (om-make-point 392 281) "" 908 0 "2023/10/26 20:48:49" "2023/10/27 23:11:17")
; End File Header
; External resources 
; (list (list (quote :abstraction) "#P\"is a step.omp\"" "#P\"is a leap.omp\""))
(in-package :om)(load-lib-for (quote ("myextension")))(setf *om-current-persistent* (om-load-patch1 "leaps followed by a step in the opposite direction" (quote ((let ((box (om-load-boxcall (quote abstraction) "mypatch" (om-load-patch-abs1 "mypatch" (quote ((let ((box (om-load-boxcall (quote abstraction) "leaps esc" (om-load-patch-abs1 "leaps esc" (quote ((let ((box (om-load-boxcall (quote genfun) "OMAND 2" (quote omand) (quote ((om-load-inputfun (quote input-funbox) "something" "SELF" nil) (om-load-inputfun (quote input-funbox) "other things" "REST" nil))) (om-make-point 157 233) nil nil nil nil 1))) (when (fboundp (quote set-active)) (set-active box nil)) box) (let ((box (let ((box (om-load-boxcall (quote genfun) "LIST-ELEMENTS" (quote list-elements) (quote ((om-load-inputfun (quote input-funbox) "a list" "LIST" nil))) (om-make-point 163 125) nil nil nil nil 3))) (setf (numouts box) 3) box))) (when (fboundp (quote set-active)) (set-active box nil)) box) (let ((box (om-load-boxcall (quote genfun) "OMAND" (quote omand) (quote ((om-load-inputfun (quote input-funbox) "something" "SELF" nil) (om-load-inputfun (quote input-funbox) "other things" "REST" nil) (om-load-inputfun (quote input-funbox) "other things" "REST" nil))) (om-make-point 183 189) nil nil nil nil 1))) (when (fboundp (quote set-active)) (set-active box nil)) box) (let ((box (om-load-boxcall (quote abstraction) "mypatch" (om-load-patch-abs1 "mypatch" (quote ((let ((box (om-load-boxcall (quote bastype) "aux 2" (quote t) (quote nil) (om-make-point 491 154) (om-make-point 26 28) 2 "2" nil))) (when (fboundp (quote set-active)) (set-active box nil)) box) (let ((box (om-load-boxcall (quote bastype) "aux" (quote t) (quote nil) (om-make-point 474 154) (om-make-point 26 28) 3 "3" nil))) (when (fboundp (quote set-active)) (set-active box nil)) box) (let ((box (om-load-boxcall (quote patch-box) "is a step 2" (quote ("elements" "strict polyphonic voice-motion" "is a step")) (quote ((om-load-inputfun (quote input-funbox) "" "x1" nil) (om-load-inputfun (quote input-funbox) "" "x2" nil))) (om-make-point 461 184) (om-make-point 50 66) nil nil nil 1))) (when (fboundp (quote set-active)) (set-active box nil)) box) (let ((box (om-load-boxcall (quote genfun) "?AND 3" (quote ?and) (quote ((om-load-inputfun (quote input-funbox) "" "XS" nil) (om-load-inputfun (quote input-funbox) "" "XS" nil))) (om-make-point 372 226) nil nil nil nil 1))) (when (fboundp (quote set-active)) (set-active box nil)) box) (let ((box (om-load-boxcall (quote genfun) "?AND 2" (quote ?and) (quote ((om-load-inputfun (quote input-funbox) "" "XS" nil) (om-load-inputfun (quote input-funbox) "" "XS" nil))) (om-make-point 222 226) nil nil nil nil 1))) (when (fboundp (quote set-active)) (set-active box nil)) box) (let ((box (om-load-boxcall (quote genfun) "?> 2" (quote ?>) (quote ((om-load-inputfun (quote input-funbox) "" "X" nil) (om-load-inputfun (quote input-funbox) "" "Y" nil))) (om-make-point 357 176) nil nil nil nil 1))) (when (fboundp (quote set-active)) (set-active box nil)) box) (let ((box (om-load-boxcall (quote genfun) "?< 2" (quote ?<) (quote ((om-load-inputfun (quote input-funbox) "" "X" nil) (om-load-inputfun (quote input-funbox) "" "Y" nil))) (om-make-point 397 176) nil nil nil nil 1))) (when (fboundp (quote set-active)) (set-active box nil)) box) (let ((box (let ((box (om-load-boxcall (quote genfun) "LIST-ELEMENTS 3" (quote list-elements) (quote ((om-load-inputfun (quote input-funbox) "a list" "LIST" nil))) (om-make-point 331 98) (om-make-point 116 58) nil nil nil 3))) (setf (numouts box) 3) box))) (when (fboundp (quote set-active)) (set-active box nil)) box) (let ((box (om-load-boxcall (quote genfun) "?>" (quote ?>) (quote ((om-load-inputfun (quote input-funbox) "" "X" nil) (om-load-inputfun (quote input-funbox) "" "Y" nil))) (om-make-point 247 176) nil nil nil nil 1))) (when (fboundp (quote set-active)) (set-active box nil)) box) (let ((box (om-load-boxcall (quote genfun) "?<" (quote ?<) (quote ((om-load-inputfun (quote input-funbox) "" "X" nil) (om-load-inputfun (quote input-funbox) "" "Y" nil))) (om-make-point 207 176) nil nil nil nil 1))) (when (fboundp (quote set-active)) (set-active box nil)) box) (let ((box (let ((box (om-load-boxcall (quote genfun) "LIST-ELEMENTS 2" (quote list-elements) (quote ((om-load-inputfun (quote input-funbox) "a list" "LIST" nil))) (om-make-point 181 98) (om-make-point 116 58) nil nil nil 3))) (setf (numouts box) 3) box))) (when (fboundp (quote set-active)) (set-active box nil)) box) (let ((box (om-load-boxcall (quote genfun) "?AND 2" (quote ?and) (quote ((om-load-inputfun (quote input-funbox) "" "XS" nil) (om-load-inputfun (quote input-funbox) "" "XS" nil))) (om-make-point 222 226) nil nil nil nil 1))) (when (fboundp (quote set-active)) (set-active box nil)) box) (let ((box (om-load-boxcall (quote genfun) "?OR 2" (quote ?or) (quote ((om-load-inputfun (quote input-funbox) "" "XS" nil) (om-load-inputfun (quote input-funbox) "" "XS" nil))) (om-make-point 270 288) nil nil nil nil 1))) (when (fboundp (quote set-active)) (set-active box nil)) box) (let ((box (om-load-boxcall (quote patch-box) "is a step" (quote ("elements" "strict polyphonic voice-motion" "is a step")) (quote ((om-load-inputfun (quote input-funbox) "" "x1" nil) (om-load-inputfun (quote input-funbox) "" "x2" nil))) (om-make-point 101 164) nil nil nil nil 1))) (when (fboundp (quote set-active)) (set-active box nil)) box) (let ((box (om-load-boxcall (quote genfun) "?AND" (quote ?and) (quote ((om-load-inputfun (quote input-funbox) "" "XS" nil) (om-load-inputfun (quote input-funbox) "" "XS" nil) (om-load-inputfun (quote input-funbox) "" "XS" nil))) (om-make-point 132 253) nil nil nil nil 1))) (when (fboundp (quote set-active)) (set-active box nil)) box) (let ((box (om-load-boxcall (quote genfun) "?OR" (quote ?or) (quote ((om-load-inputfun (quote input-funbox) "" "XS" nil) (om-load-inputfun (quote input-funbox) "" "XS" nil))) (om-make-point 105 314) nil nil nil nil 1))) (when (fboundp (quote set-active)) (set-active box nil)) box) (let ((box (om-load-boxcall (quote genfun) "?NOT" (quote ?not) (quote ((om-load-inputfun (quote input-funbox) "" "X" nil))) (om-make-point 70 262) nil nil nil nil 1))) (when (fboundp (quote set-active)) (set-active box nil)) box) (let ((box (om-load-boxout "output" 0 (om-make-point 39 380) (quote ((om-load-inputfun (quote input-funbox) "" "out" nil))) nil nil))) (when (fboundp (quote set-active)) (set-active box nil)) box) (let ((box (om-load-boxin "input" 0 (om-make-point 50 29) "" nil nil nil))) (when (fboundp (quote set-active)) (set-active box nil)) box) (let ((box (let ((box (om-load-boxcall (quote genfun) "LIST-ELEMENTS" (quote list-elements) (quote ((om-load-inputfun (quote input-funbox) "a list" "LIST" nil))) (om-make-point 45 98) (om-make-point 116 58) nil nil nil 3))) (setf (numouts box) 3) box))) (when (fboundp (quote set-active)) (set-active box nil)) box) (let ((box (om-load-boxcall (quote patch-box) "is a leap" (quote ("elements" "strict polyphonic voice-motion" "is a leap")) (quote ((om-load-inputfun (quote input-funbox) "" "x1" nil) (om-load-inputfun (quote input-funbox) "" "x2" nil))) (om-make-point 52 164) nil nil "&" nil 1))) (when (fboundp (quote set-active)) (set-active box nil)) box))) (quote ((1 0 2 0 nil 0) (0 0 2 1 nil 0) (5 0 3 0 nil 0) (6 0 3 1 nil 0) (7 0 5 0 nil 0) (7 1 5 1 nil 0) (7 1 6 0 nil 0) (7 2 6 1 nil 0) (18 0 7 0 nil 0) (10 1 8 0 nil 0) (10 2 8 1 nil 0) (10 0 9 0 nil 0) (10 1 9 1 nil 0) (18 0 10 0 nil 0) (9 0 11 0 nil 0) (8 0 11 1 nil 0) (11 0 12 0 nil 0) (3 0 12 1 nil 0) (19 1 13 0 nil 0) (19 2 13 1 nil 0) (20 0 14 0 nil 0) (13 0 14 1 nil 0) (12 0 14 2 nil 0) (16 0 15 0 nil 0) (14 0 15 1 nil 0) (20 0 16 0 nil 0) (15 0 17 0 nil 0) (18 0 19 0 nil 0) (19 0 20 0 nil 0) (19 1 20 1 nil 0))) 6.16 nil "" (om-make-point 660 139) (om-make-point 567 431)) (quote ((om-load-inputfun (quote input-funbox) "" "input" nil))) (om-make-point 473/2 109) nil nil nil nil))) (when (fboundp (quote set-active)) (set-active box nil)) box) (let ((box (om-load-boxcall (quote lispfun) "CDDR" (quote cddr) (quote ((om-load-inputfun (quote input-funbox) "X" "X" nil))) (om-make-point 131 183) nil nil nil nil 1))) (when (fboundp (quote set-active)) (set-active box nil)) box) (let ((box (om-load-boxcall (quote bastype) "aux" (quote t) (quote nil) (om-make-point 264 256) (om-make-point 26 28) (quote t) "T" nil))) (when (fboundp (quote set-active)) (set-active box nil)) box) (let ((box (om-load-boxcall (quote genfun) "OMIF" (quote omif) (quote ((om-load-inputfun (quote input-funbox) "IF" "TEST" nil) (om-load-inputfun (quote input-funbox) "THEN" "ACTION" nil) (om-load-inputfun (quote input-funbox) "ELSE" "ELSE" nil))) (om-make-point 244 286) nil nil nil nil 1))) (when (fboundp (quote set-active)) (set-active box nil)) box) (let ((box (om-load-boxout "output" 0 (om-make-point 5 360) (quote ((om-load-inputfun (quote input-funbox) "" "out" nil))) nil nil))) (when (fboundp (quote set-active)) (set-active box nil)) box) (let ((box (om-load-boxin "input" 0 (om-make-point 5 45) "" nil nil nil))) (when (fboundp (quote set-active)) (set-active box nil)) box))) (quote ((4 0 0 0 nil 0) (2 0 0 1 nil 0) (8 0 1 0 nil 0) (1 0 2 0 nil 0) (1 1 2 1 nil 0) (1 2 2 2 nil 0) (8 0 3 0 nil 0) (8 0 4 0 nil 0) (0 0 6 0 nil 0) (3 0 6 1 nil 0) (5 0 6 2 nil 0) (6 0 7 0 nil 0))) 6.16 nil "" (om-make-point 583 62) (om-make-point 369 463)) (quote ((om-load-inputfun (quote input-funbox) "" "input" nil))) (om-make-point 28 133) nil (list nil) "l" "leaps esc"))) (when (fboundp (quote set-active)) (set-active box nil)) box) (let ((box (om-load-boxcall (quote genfun) "MAPLIST?AND" (quote maplist?and) (quote ((om-load-inputfun (quote input-funbox) "" "FN" nil) (om-load-inputfun (quote input-funbox) "" "LIST" nil))) (om-make-point 43 206) nil nil nil nil 1))) (when (fboundp (quote set-active)) (set-active box nil)) box) (let ((box (om-load-boxcall (quote genfun) "FLAT" (quote flat) (quote ((om-load-inputfun (quote input-funbox) "a list" "LST" nil))) (om-make-point 112 123) nil nil nil nil 1))) (when (fboundp (quote set-active)) (set-active box nil)) box) (let ((box (om-load-boxout "output" 0 (om-make-point 5 340) (quote ((om-load-inputfun (quote input-funbox) "" "out" nil))) nil nil))) (when (fboundp (quote set-active)) (set-active box nil)) box) (let ((box (om-load-boxin "voice" 0 (om-make-point 5 45) "" "voice" (list 60 69 67) nil))) (when (fboundp (quote set-active)) (set-active box nil)) box))) (quote ((0 0 1 0 nil 0) (2 0 1 1 nil 0) (4 0 2 0 nil 0) (1 0 3 0 nil 0))) 6.16 nil "" (om-make-point 624 74) (om-make-point 400 400)) (quote ((om-load-inputfun (quote input-funbox) "" "input" nil))) (om-make-point 57 58) nil nil "l" "mypatch"))) (when (fboundp (quote set-active)) (set-active box nil)) box) (let ((box (om-load-boxcall (quote genfun) "MAP?AND" (quote map?and) (quote ((om-load-inputfun (quote input-funbox) "" "FN" nil) (om-load-inputfun (quote input-funbox) "" "LIST" nil))) (om-make-point 87 130) nil nil nil nil 1))) (when (fboundp (quote set-active)) (set-active box nil)) box) (let ((box (om-load-boxout "output" 0 (om-make-point 46 203) (quote ((om-load-inputfun (quote input-funbox) "" "out" nil))) nil nil))) (when (fboundp (quote set-active)) (set-active box nil)) box) (let ((box (om-load-boxin "input" 0 (om-make-point 135 65) "" "input" (list 55 (list 55 57) 58 60 nil) nil))) (when (fboundp (quote set-active)) (set-active box nil)) box))) (quote ((0 0 1 0 nil 0) (3 0 1 1 nil 0) (1 0 2 0 nil 0))) nil 6.16))