; OM File Header - Saved 2023/10/27 23:11:17
; (6.16 :patc (om-make-point 906.97657 250) (om-make-point 78 111) (om-make-point 893 390) "" 908 0 "2021/06/06 11:26:49" "2023/10/27 23:11:17")
; End File Header
; External resources 
; (list (list (quote :abstraction) "#P\"is an octave or unison.omp\""))
(in-package :om)(load-lib-for (quote ("myextension")))(setf *om-current-persistent* (om-load-patch1 "octaves ban" (quote ((let ((box (om-load-boxcall (quote genfun) "MAP?AND" (quote map?and) (quote ((om-load-inputfun (quote input-funbox) "" "FN" nil) (om-load-inputfun (quote input-funbox) "" "LIST" nil))) (om-make-point 117 239) nil nil nil nil 1))) (when (fboundp (quote set-active)) (set-active box nil)) box) (let ((box (om-load-boxcall (quote abstraction) "compare" (om-load-patch-abs1 "compare" (quote ((let ((box (om-load-boxcall (quote genfun) "MAP?AND" (quote map?and) (quote ((om-load-inputfun (quote input-funbox) "" "FN" nil) (om-load-inputfun (quote input-funbox) "" "LIST" nil))) (om-make-point 27 267) nil nil nil nil 1))) (when (fboundp (quote set-active)) (set-active box nil)) box) (let ((box (om-load-boxcall (quote abstraction) "mypatch" (om-load-patch-abs1 "mypatch" (quote ((let ((box (om-load-boxcall (quote genfun) "?NOT" (quote ?not) (quote ((om-load-inputfun (quote input-funbox) "" "X" nil))) (om-make-point 310 151) nil nil nil nil 1))) (when (fboundp (quote set-active)) (set-active box nil)) box) (let ((box (om-load-boxout "output" 0 (om-make-point 5 240) (quote ((om-load-inputfun (quote input-funbox) "" "out" nil))) nil nil))) (when (fboundp (quote set-active)) (set-active box nil)) box) (let ((box (om-load-boxin "input" 0 (om-make-point 50 50) "" nil nil nil))) (when (fboundp (quote set-active)) (set-active box nil)) box) (let ((box (om-load-boxcall (quote patch-box) "is an octave or unison" (quote ("elements" "strict polyphonic voice-motion" "is an octave or unison")) (quote ((om-load-inputfun (quote input-funbox) "" "x" nil) (om-load-inputfun (quote input-funbox) "" "y" nil))) (om-make-point 250 66) nil nil nil nil 1))) (when (fboundp (quote set-active)) (set-active box nil)) box) (let ((box (let ((box (om-load-boxcall (quote genfun) "LIST-ELEMENTS" (quote list-elements) (quote ((om-load-inputfun (quote input-funbox) "a list" "LIST" nil))) (om-make-point 264 0) nil nil nil nil 2))) (setf (numouts box) 2) box))) (when (fboundp (quote set-active)) (set-active box nil)) box))) (quote ((3 0 0 0 nil 0) (0 0 1 0 nil 0) (4 0 3 0 nil 0) (4 1 3 1 nil 0) (2 0 4 0 nil 0))) 6.16 nil "" (om-make-point 200 200) (om-make-point 430 317)) (quote ((om-load-inputfun (quote input-funbox) "" "input" nil))) (om-make-point 0 343/2) nil nil "l" nil))) (when (fboundp (quote set-active)) (set-active box nil)) box) (let ((box (om-load-boxcall (quote genfun) "MAT-TRANS" (quote mat-trans) (quote ((om-load-inputfun (quote input-funbox) "a list of lists" "MATRIX" nil))) (om-make-point 118 177) nil nil nil nil 1))) (when (fboundp (quote set-active)) (set-active box nil)) box) (let ((box (om-load-boxin "input" 0 (om-make-point 5 45) "" nil nil nil))) (when (fboundp (quote set-active)) (set-active box nil)) box) (let ((box (om-load-boxout "output" 0 (om-make-point 5 330) (quote ((om-load-inputfun (quote input-funbox) "" "out" nil))) nil nil))) (when (fboundp (quote set-active)) (set-active box nil)) box) (let ((box (om-load-boxcall (quote lispfun) "FLATTEN-SEQC" (quote flatten-seqc) (quote ((om-load-inputfun (quote input-funbox) "LIST" "LIST" nil))) (om-make-point 114 133) nil nil nil nil 1))) (when (fboundp (quote set-active)) (set-active box nil)) box))) (quote ((1 0 0 0 nil 0) (2 0 0 1 nil 0) (5 0 2 0 nil 0) (0 0 4 0 nil 0) (3 0 5 0 nil 0))) 6.16 nil "" (om-make-point 800 190) (om-make-point 432 369)) (quote ((om-load-inputfun (quote input-funbox) "" "input" nil))) (om-make-point 86 164) nil nil "l" "compare"))) (when (fboundp (quote set-active)) (set-active box nil)) box) (let ((box (om-load-boxcall (quote lispfun) "COMBINATIONS-OF2" (quote combinations-of2) (quote ((om-load-inputfun (quote input-funbox) "XS" "XS" nil))) (om-make-point 181 172) nil nil nil nil 1))) (when (fboundp (quote set-active)) (set-active box nil)) box) (let ((box (om-load-boxcall (quote lispfun) "CDR" (quote cdr) (quote ((om-load-inputfun (quote input-funbox) "X" "X" nil))) (om-make-point 357 161) nil nil nil nil 1))) (when (fboundp (quote set-active)) (set-active box nil)) box) (let ((box (om-load-boxcall (quote lispfun) "BUTLAST" (quote butlast) (quote ((om-load-inputfun (quote input-funbox) "LIST" "LIST" nil))) (om-make-point 348 225) nil nil nil nil 1))) (when (fboundp (quote set-active)) (set-active box nil)) box) (let ((box (om-load-boxout "output" 0 (om-make-point 96 380) (quote ((om-load-inputfun (quote input-funbox) "" "out" nil))) nil nil))) (when (fboundp (quote set-active)) (set-active box nil)) box) (let ((box (om-load-boxin "input" 0 (om-make-point 5 45) "" "input" nil nil))) (when (fboundp (quote set-active)) (set-active box nil)) box))) (quote ((1 0 0 0 nil 0) (2 0 0 1 nil 0) (6 0 2 0 nil 0) (3 0 4 0 nil 0))) nil 6.16))