; OM File Header - Saved 2023/10/27 23:11:17
; (6.16 :patc (om-make-point 880.97657 370) (om-make-point 50 50) (om-make-point 1151 511) "" 908 0 "2021/06/06 12:32:58" "2023/10/27 23:11:17")
; End File Header
(in-package :om)(load-lib-for (quote ("myextension")))(setf *om-current-persistent* (om-load-patch1 "prepared cadence rule" (quote ((let ((box (om-load-boxcall (quote bastype) "aux 5" (quote t) (quote nil) (om-make-point 850 333) (om-make-point 26 28) 2 "2" nil))) (when (fboundp (quote set-active)) (set-active box nil)) box) (let ((box (om-load-boxcall (quote bastype) "aux 4" (quote t) (quote nil) (om-make-point 836 333) (om-make-point 31 28) -2 "-2" nil))) (when (fboundp (quote set-active)) (set-active box nil)) box) (let ((box (om-load-boxcall (quote genfun) "?BETWEEN 2" (quote ?between) (quote ((om-load-inputfun (quote input-funbox) "" "X" nil) (om-load-inputfun (quote input-funbox) "" "MIN" nil) (om-load-inputfun (quote input-funbox) "" "MAX" nil))) (om-make-point 812 363) nil nil nil nil 1))) (when (fboundp (quote set-active)) (set-active box nil)) box) (let ((box (om-load-boxcall (quote bastype) "aux 2" (quote t) (quote nil) (om-make-point 466 342) (om-make-point 26 28) 2 "2" nil))) (when (fboundp (quote set-active)) (set-active box nil)) box) (let ((box (om-load-boxcall (quote bastype) "aux" (quote t) (quote nil) (om-make-point 452 342) (om-make-point 31 28) -2 "-2" nil))) (when (fboundp (quote set-active)) (set-active box nil)) box) (let ((box (om-load-boxcall (quote genfun) "?BETWEEN" (quote ?between) (quote ((om-load-inputfun (quote input-funbox) "" "X" nil) (om-load-inputfun (quote input-funbox) "" "MIN" nil) (om-load-inputfun (quote input-funbox) "" "MAX" nil))) (om-make-point 428 372) nil nil nil nil 1))) (when (fboundp (quote set-active)) (set-active box nil)) box) (let ((box (om-load-boxcall (quote lispfun) "CAR" (quote car) (quote ((om-load-inputfun (quote input-funbox) "X" "X" nil))) (om-make-point 232 278) nil nil nil nil 1))) (when (fboundp (quote set-active)) (set-active box nil)) box) (let ((box (om-load-boxcall (quote lispfun) "CADR 3" (quote cadr) (quote ((om-load-inputfun (quote input-funbox) "X" "X" nil))) (om-make-point 580 111) nil nil nil nil 1))) (when (fboundp (quote set-active)) (set-active box nil)) box) (let ((box (om-load-boxcall (quote lispfun) "CAR 3" (quote car) (quote ((om-load-inputfun (quote input-funbox) "X" "X" nil))) (om-make-point 247 111) nil nil nil nil 1))) (when (fboundp (quote set-active)) (set-active box nil)) box) (let ((box (om-load-boxcall (quote genfun) "FLAT 2" (quote flat) (quote ((om-load-inputfun (quote input-funbox) "a list" "LST" nil))) (om-make-point 577 163) nil nil nil nil 1))) (when (fboundp (quote set-active)) (set-active box nil)) box) (let ((box (om-load-boxcall (quote lispfun) "REVERSE 2" (quote reverse) (quote ((om-load-inputfun (quote input-funbox) "SEQUENCE" "SEQUENCE" nil))) (om-make-point 549 228) nil nil nil nil 1))) (when (fboundp (quote set-active)) (set-active box nil)) box) (let ((box (om-load-boxcall (quote lispfun) "CAR 2" (quote car) (quote ((om-load-inputfun (quote input-funbox) "X" "X" nil))) (om-make-point 544 280) nil nil nil nil 1))) (when (fboundp (quote set-active)) (set-active box nil)) box) (let ((box (om-load-boxcall (quote lispfun) "/=V 2" (quote screamer:/=v) (quote ((om-load-inputfun (quote input-funbox) "X" "X" nil) (om-load-inputfun (quote input-funbox) "add-input" "add-input" nil))) (om-make-point 688 401) nil nil nil nil 1))) (when (fboundp (quote set-active)) (set-active box nil)) box) (let ((box (om-load-boxcall (quote bastype) "aux 6" (quote t) (quote nil) (om-make-point 702 371) (om-make-point 26 28) 0 "0" nil))) (when (fboundp (quote set-active)) (set-active box nil)) box) (let ((box (om-load-boxcall (quote lispfun) "ANDV 2" (quote screamer:andv) (quote ((om-load-inputfun (quote input-funbox) "add-input" "add-input" nil) (om-load-inputfun (quote input-funbox) "add-input" "add-input" nil))) (om-make-point 717 459) nil nil nil nil 1))) (when (fboundp (quote set-active)) (set-active box nil)) box) (let ((box (om-load-boxcall (quote genfun) "FLAT" (quote flat) (quote ((om-load-inputfun (quote input-funbox) "a list" "LST" nil))) (om-make-point 247 163) nil nil nil nil 1))) (when (fboundp (quote set-active)) (set-active box nil)) box) (let ((box (om-load-boxcall (quote lispfun) "REVERSE" (quote reverse) (quote ((om-load-inputfun (quote input-funbox) "SEQUENCE" "SEQUENCE" nil))) (om-make-point 219 228) nil nil nil nil 1))) (when (fboundp (quote set-active)) (set-active box nil)) box) (let ((box (om-load-boxcall (quote lispfun) "/=V" (quote screamer:/=v) (quote ((om-load-inputfun (quote input-funbox) "X" "X" nil) (om-load-inputfun (quote input-funbox) "add-input" "add-input" nil))) (om-make-point 358 401) nil nil nil nil 1))) (when (fboundp (quote set-active)) (set-active box nil)) box) (let ((box (om-load-boxcall (quote bastype) "aux 3" (quote t) (quote nil) (om-make-point 372 371) (om-make-point 26 28) 0 "0" nil))) (when (fboundp (quote set-active)) (set-active box nil)) box) (let ((box (om-load-boxcall (quote lispfun) "ANDV" (quote screamer:andv) (quote ((om-load-inputfun (quote input-funbox) "add-input" "add-input" nil) (om-load-inputfun (quote input-funbox) "add-input" "add-input" nil))) (om-make-point 387 459) nil nil nil nil 1))) (when (fboundp (quote set-active)) (set-active box nil)) box) (let ((box (om-load-boxcall (quote lispfun) "ORV" (quote screamer:orv) (quote ((om-load-inputfun (quote input-funbox) "add-input" "add-input" nil) (om-load-inputfun (quote input-funbox) "add-input" "add-input" nil))) (om-make-point 88 529) nil nil nil nil 1))) (when (fboundp (quote set-active)) (set-active box nil)) box) (let ((box (om-load-boxin "input" 7 (om-make-point 825 45) "" "input" nil nil))) (when (fboundp (quote set-active)) (set-active box nil)) box) (let ((box (om-load-boxout "output" 0 (om-make-point 10 580) (quote ((om-load-inputfun (quote input-funbox) "" "out" nil))) nil nil))) (when (fboundp (quote set-active)) (set-active box nil)) box) (let ((box (om-load-boxin "horizontal-intervals-scale-degrees" 6 (om-make-point 605 45) "" "horizontal-intervals-scale-degrees" nil nil))) (when (fboundp (quote set-active)) (set-active box nil)) box) (let ((box (om-load-boxin "horizontal-intervals%12" 5 (om-make-point 425 45) "" "horizontal-intervals%12" nil nil))) (when (fboundp (quote set-active)) (set-active box nil)) box) (let ((box (om-load-boxin "vertical-intervals%12" 4 (om-make-point 305 45) "" "vertical-intervals%12" nil nil))) (when (fboundp (quote set-active)) (set-active box nil)) box) (let ((box (om-load-boxin "voice-intervals" 3 (om-make-point 215 45) "" "voice-intervals" nil nil))) (when (fboundp (quote set-active)) (set-active box nil)) box) (let ((box (om-load-boxin "vertical-intervals" 2 (om-make-point 105 45) "" "vertical-intervals" nil nil))) (when (fboundp (quote set-active)) (set-active box nil)) box) (let ((box (om-load-boxin "voice2" 1 (om-make-point 55 45) "" "voice2" nil nil))) (when (fboundp (quote set-active)) (set-active box nil)) box) (let ((box (om-load-boxin "voice1" 0 (om-make-point 5 45) "" "voice1" nil nil))) (when (fboundp (quote set-active)) (set-active box nil)) box))) (quote ((11 0 2 0 nil 0) (1 0 2 1 nil 0) (0 0 2 2 nil 0) (6 0 5 0 nil 0) (4 0 5 1 nil 0) (3 0 5 2 nil 0) (16 0 6 0 nil 0) (26 0 7 0 nil 0) (26 0 8 0 nil 0) (7 0 9 0 nil 0) (9 0 10 0 nil 0) (10 0 11 0 nil 0) (11 0 12 0 nil 0) (13 0 12 1 nil 0) (12 0 14 0 nil 0) (2 0 14 1 nil 0) (8 0 15 0 nil 0) (15 0 16 0 nil 0) (6 0 17 0 nil 0) (18 0 17 1 nil 0) (17 0 19 0 nil 0) (5 0 19 1 nil 0) (19 0 20 0 nil 0) (14 0 20 1 nil 0) (14 0 22 0 nil 0))) nil 6.16))