; OM File Header - Saved 2023/10/27 23:11:18
; (6.16 :patc (om-make-point 865.97657 130) (om-make-point 50 50) (om-make-point 1165 306) "" 908 0 "2021/06/06 15:28:05" "2023/10/27 23:11:18")
; End File Header
(in-package :om)(load-lib-for (quote ("myextension")))(setf *om-current-persistent* (om-load-patch1 "repeated notes in voice 2" (quote ((let ((box (om-load-boxcall (quote bastype) "aux" (quote t) (quote nil) (om-make-point 191 339) (om-make-point 26 28) 0 "0" nil))) (when (fboundp (quote set-active)) (set-active box nil)) box) (let ((box (om-load-boxcall (quote genfun) "?LIST/=" (quote ?list/=) (quote ((om-load-inputfun (quote input-funbox) "" "XS" nil) (om-load-inputfun (quote input-funbox) "" "VALUE" nil))) (om-make-point 169 369) nil nil nil nil 1))) (when (fboundp (quote set-active)) (set-active box nil)) box) (let ((box (om-load-boxcall (quote bastype) "aux 2" (quote t) (quote nil) (om-make-point 323 206) (om-make-point 31 28) nil "nil" nil))) (when (fboundp (quote set-active)) (set-active box nil)) box) (let ((box (om-load-boxcall (quote lispfun) "REMOVE" (quote remove) (quote ((om-load-inputfun (quote input-funbox) "ITEM" "ITEM" nil) (om-load-inputfun (quote input-funbox) "SEQUENCE" "SEQUENCE" nil))) (om-make-point 312 236) nil nil nil nil 1))) (when (fboundp (quote set-active)) (set-active box nil)) box) (let ((box (om-load-boxcall (quote lispfun) "CADR" (quote cadr) (quote ((om-load-inputfun (quote input-funbox) "X" "X" nil))) (om-make-point 285 115) nil nil nil nil 1))) (when (fboundp (quote set-active)) (set-active box nil)) box) (let ((box (om-load-boxcall (quote genfun) "FLAT" (quote flat) (quote ((om-load-inputfun (quote input-funbox) "a list" "LST" nil))) (om-make-point 259 160) nil nil nil nil 1))) (when (fboundp (quote set-active)) (set-active box nil)) box) (let ((box (om-load-boxin "input" 7 (om-make-point 805 45) "" nil nil nil))) (when (fboundp (quote set-active)) (set-active box nil)) box) (let ((box (om-load-boxout "output" 0 (om-make-point 96 500) (quote ((om-load-inputfun (quote input-funbox) "" "out" nil))) nil nil))) (when (fboundp (quote set-active)) (set-active box nil)) box) (let ((box (om-load-boxin "horizontal-intervals-scale-degrees" 6 (om-make-point 605 45) "" "horizontal-intervals-scale-degrees" nil nil))) (when (fboundp (quote set-active)) (set-active box nil)) box) (let ((box (om-load-boxin "vertical-intervals-scale-degrees" 5 (om-make-point 425 45) "" "vertical-intervals-scale-degrees" nil nil))) (when (fboundp (quote set-active)) (set-active box nil)) box) (let ((box (om-load-boxin "vertical-intervals%12" 4 (om-make-point 305 45) "" "vertical-intervals%12" nil nil))) (when (fboundp (quote set-active)) (set-active box nil)) box) (let ((box (om-load-boxin "voice-intervals" 3 (om-make-point 215 45) "" "voice-intervals" nil nil))) (when (fboundp (quote set-active)) (set-active box nil)) box) (let ((box (om-load-boxin "vertical-intervals" 2 (om-make-point 105 45) "" "vertical-intervals" nil nil))) (when (fboundp (quote set-active)) (set-active box nil)) box) (let ((box (om-load-boxin "voice2" 1 (om-make-point 55 45) "" "voice2" nil nil))) (when (fboundp (quote set-active)) (set-active box nil)) box) (let ((box (om-load-boxin "cf" 0 (om-make-point 5 45) "" "cf" nil nil))) (when (fboundp (quote set-active)) (set-active box nil)) box))) (quote ((3 0 1 0 nil 0) (0 0 1 1 nil 0) (2 0 3 0 nil 0) (5 0 3 1 nil 0) (11 0 4 0 nil 0) (4 0 5 0 nil 0) (1 0 7 0 nil 0))) nil 6.16))