; OM File Header - Saved 2022/11/25 6:51:43
; (6.16 :patc (om-make-point 1157.9688 550) (om-make-point 50 50) (om-make-point 1364 351) "" 908 0 "2021/06/06 12:14:40" "2022/11/08 18:05:55")
; End File Header
(in-package :om)(load-lib-for (quote ("myextension")))(setf *om-current-persistent* (om-load-patch1 "voice-overlap rule" (quote ((let ((box (om-load-boxcall (quote lispfun) "PRINT" (quote print) (quote ((om-load-inputfun (quote input-funbox) "SOMETHING" "SOMETHING" nil))) (om-make-point 133 121) nil nil nil nil 1))) (when (fboundp (quote set-active)) (set-active box nil)) box) (let ((box (om-load-boxcall (quote bastype) "aux 5" (quote t) (quote nil) (om-make-point 7 175) (om-make-point 31 28) nil "nil" nil))) (when (fboundp (quote set-active)) (set-active box nil)) box) (let ((box (om-load-boxcall (quote lispfun) "REMOVE" (quote remove) (quote ((om-load-inputfun (quote input-funbox) "ITEM" "ITEM" nil) (om-load-inputfun (quote input-funbox) "SEQUENCE" "SEQUENCE" nil))) (om-make-point 0 205) nil nil nil nil 1))) (when (fboundp (quote set-active)) (set-active box nil)) box) (let ((box (om-load-boxcall (quote bastype) "aux 4" (quote t) (quote nil) (om-make-point 148 224) (om-make-point 32 28) 24 "24" nil))) (when (fboundp (quote set-active)) (set-active box nil)) box) (let ((box (om-load-boxcall (quote bastype) "aux 3" (quote t) (quote nil) (om-make-point 120 224) (om-make-point 26 28) 0 "0" nil))) (when (fboundp (quote set-active)) (set-active box nil)) box) (let ((box (om-load-boxcall (quote genfun) "ALL-BETWEENV" (quote t2l::all-betweenv) (quote ((om-load-inputfun (quote input-funbox) "" "X" nil) (om-load-inputfun (quote input-funbox) "" "MIN" nil) (om-load-inputfun (quote input-funbox) "" "MAX" nil))) (om-make-point 88 254) nil nil nil nil 1))) (when (fboundp (quote set-active)) (set-active box nil)) box) (let ((box (om-load-boxin "input" 7 (om-make-point 825 45) "" "input" nil nil))) (when (fboundp (quote set-active)) (set-active box nil)) box) (let ((box (om-load-boxcall (quote genfun) "TEXTURAL-MOTION-I" (quote t2l::textural-motion-i) (quote ((om-load-inputfun (quote input-funbox) "voice1" "VOICE1" nil) (om-load-inputfun (quote input-funbox) "voice2" "VOICE2" nil))) (om-make-point 934 354) nil nil nil nil 1))) (when (fboundp (quote set-active)) (set-active box nil)) box) (let ((box (om-load-boxcomment "comment" (om-make-point 277 22) (quote "Usage Example:") "" (om-make-point 837 283) nil (om-make-color 0 0 0) (om-make-font "Verdana" 12 :family "Verdana" :style (quote (:plain)) :mode (quote nil))))) (when (fboundp (quote set-active)) (set-active box nil)) box) (let ((box (om-load-boxout "output" 0 (om-make-point 96 500) (quote ((om-load-inputfun (quote input-funbox) "" "out" nil))) nil nil))) (when (fboundp (quote set-active)) (set-active box nil)) box) (let ((box (om-load-boxin "horizontal-intervals-scale-degrees" 6 (om-make-point 605 45) "" "horizontal-intervals-scale-degrees" nil nil))) (when (fboundp (quote set-active)) (set-active box nil)) box) (let ((box (om-load-boxin "horizontal-intervals%12" 5 (om-make-point 425 45) "" "horizontal-intervals%12" nil nil))) (when (fboundp (quote set-active)) (set-active box nil)) box) (let ((box (om-load-boxin "vertical-intervals%12" 4 (om-make-point 305 45) "" "vertical-intervals%12" nil nil))) (when (fboundp (quote set-active)) (set-active box nil)) box) (let ((box (om-load-boxin "voice-intervals" 3 (om-make-point 215 45) "" "voice-intervals" nil nil))) (when (fboundp (quote set-active)) (set-active box nil)) box) (let ((box (om-load-boxin "vertical-intervals" 2 (om-make-point 105 45) "" "vertical-intervals" nil nil))) (when (fboundp (quote set-active)) (set-active box nil)) box) (let ((box (om-load-boxin "voice2" 1 (om-make-point 55 45) "" "voice2" nil nil))) (when (fboundp (quote set-active)) (set-active box nil)) box) (let ((box (om-load-boxin "cf" 0 (om-make-point 5 45) "" "cf" nil nil))) (when (fboundp (quote set-active)) (set-active box nil)) box))) (quote ((14 0 0 0 nil 0) (1 0 2 0 nil 0) (0 0 2 1 nil 0) (2 0 5 0 nil 0) (4 0 5 1 nil 0) (3 0 5 2 nil 0) (5 0 9 0 nil 0))) nil 6.16))
