; OM File Header - Saved 2022/11/20 3:35:49
; (6.16 :patc (om-make-point 603.9844 610) (om-make-point 545 227) (om-make-point 502 344) "" 908 0 "2022/11/18 21:03:24" "2022/11/19 6:43:31")
; End File Header
; External resources 
; (list (list (quote :abstraction) "#P\"C:intervalswithinch.omp\""))
(in-package :om)(load-lib-for (quote ("myextension")))(setf *om-current-persistent* (om-load-patch1 "hidden5ths" (quote ((let ((box (om-load-boxcall (quote genfun) "OMANDV" (quote t2l::omandv) (quote ((om-load-inputfun (quote input-funbox) "" "XS" nil) (om-load-inputfun (quote input-funbox) "" "XS" nil))) (om-make-point 133 284) nil nil nil nil 1))) (when (fboundp (quote set-active)) (set-active box nil)) box) (let ((box (om-load-boxcall (quote genfun) "MAPLIST-ANDV 2" (quote t2l::maplist-andv) (quote ((om-load-inputfun (quote input-funbox) "" "FN" nil) (om-load-inputfun (quote input-funbox) "" "LIST" nil))) (om-make-point 227 212) nil nil nil nil 1))) (when (fboundp (quote set-active)) (set-active box nil)) box) (let ((box (om-load-boxcall (quote abstraction) "mypatch 2" (om-load-patch-abs1 "mypatch" (quote ((let ((box (om-load-boxcall (quote abstraction) "compare intervals" (om-load-patch-abs1 "compare intervals" (quote ((let ((box (om-load-boxcall (quote genfun) "MAP-ANDV" (quote t2l::map-andv) (quote ((om-load-inputfun (quote input-funbox) "" "FN" nil) (om-load-inputfun (quote input-funbox) "" "LIST" nil))) (om-make-point 206 367) nil nil nil nil 1))) (when (fboundp (quote set-active)) (set-active box nil)) box) (let ((box (om-load-boxcall (quote abstraction) "mypatch" (om-load-patch-abs1 "mypatch" (quote ((let ((box (om-load-boxcall (quote genfun) "MAP-ANDV" (quote t2l::map-andv) (quote ((om-load-inputfun (quote input-funbox) "" "FN" nil) (om-load-inputfun (quote input-funbox) "" "LIST" nil))) (om-make-point 38 189) nil nil nil nil 1))) (when (fboundp (quote set-active)) (set-active box nil)) box) (let ((box (om-load-boxcall (quote abstraction) "mypatch" (om-load-patch-abs1 "mypatch" (quote ((let ((box (om-load-boxcall (quote lispfun) "CAR 2" (quote car) (quote ((om-load-inputfun (quote input-funbox) "X" "X" nil))) (om-make-point 317 110) nil nil nil nil 1))) (when (fboundp (quote set-active)) (set-active box nil)) box) (let ((box (om-load-boxcall (quote lispfun) "CAR" (quote car) (quote ((om-load-inputfun (quote input-funbox) "X" "X" nil))) (om-make-point 277 111) nil nil nil nil 1))) (when (fboundp (quote set-active)) (set-active box nil)) box) (let ((box (om-load-boxcall (quote abstraction) "mypatch 2" (om-load-patch-abs1 "mypatch 2" (quote ((let ((box (om-load-boxcall (quote lispfun) "LIST" (quote list) (quote ((om-load-inputfun (quote input-funbox) "add-input" "add-input" nil) (om-load-inputfun (quote input-funbox) "add-input" "add-input" nil))) (om-make-point 37 175) nil nil nil nil 1))) (when (fboundp (quote set-active)) (set-active box nil)) box) (let ((box (om-load-boxout "output" 0 (om-make-point 342 428) (quote ((om-load-inputfun (quote input-funbox) "" "out" nil))) nil nil))) (when (fboundp (quote set-active)) (set-active box nil)) box) (let ((box (om-load-boxin "input 2" 1 (om-make-point 137 46) "" nil nil nil))) (when (fboundp (quote set-active)) (set-active box nil)) box) (let ((box (om-load-boxin "input" 0 (om-make-point 50 50) "" nil nil nil))) (when (fboundp (quote set-active)) (set-active box nil)) box) (let ((box (om-load-boxcall (quote abstraction) "mypatch" (om-load-patch-abs1 "mypatch" (quote ((let ((box (om-load-boxcall (quote genfun) "OM=V" (quote t2l::om=v) (quote ((om-load-inputfun (quote input-funbox) "" "XS" nil) (om-load-inputfun (quote input-funbox) "" "XS" nil))) (om-make-point 37 28) nil nil "l" nil 1))) (when (fboundp (quote set-active)) (set-active box nil)) box) (let ((box (om-load-boxcall (quote genfun) "MAP2ANDV" (quote t2l::map2andv) (quote ((om-load-inputfun (quote input-funbox) "" "FN" nil) (om-load-inputfun (quote input-funbox) "" "LIST1" nil) (om-load-inputfun (quote input-funbox) "" "LIST2" nil))) (om-make-point 87 87) nil nil nil nil 1))) (when (fboundp (quote set-active)) (set-active box nil)) box) (let ((box (om-load-boxout "output" 0 (om-make-point 50 2974/19) (quote ((om-load-inputfun (quote input-funbox) "" "out" nil))) nil nil))) (when (fboundp (quote set-active)) (set-active box nil)) box) (let ((box (om-load-boxin "input 2" 1 (om-make-point 2586/19 10) "" nil nil nil))) (when (fboundp (quote set-active)) (set-active box nil)) box) (let ((box (om-load-boxin "input" 0 (om-make-point 1636/19 11) "" nil nil nil))) (when (fboundp (quote set-active)) (set-active box nil)) box))) (quote ((0 0 1 0 nil 0) (4 0 1 1 nil 0) (3 0 1 2 nil 0) (1 0 2 0 nil 0))) 6.16 nil "" (om-make-point 200 200) (om-make-point 500 400)) (quote ((om-load-inputfun (quote input-funbox) "" "input" nil) (om-load-inputfun (quote input-funbox) "" "input 2" nil))) (om-make-point 386287/1938 499007/1938) nil nil nil "mypatch"))) (when (fboundp (quote set-active)) (set-active box nil)) box) (let ((box (om-load-boxcall (quote lispfun) "PRINT" (quote print) (quote ((om-load-inputfun (quote input-funbox) "SOMETHING" "SOMETHING" nil))) (om-make-point 134143/1938 447701/1938) nil nil nil nil 1))) (when (fboundp (quote set-active)) (set-active box nil)) box) (let ((box (om-load-seqbox "SEQUENCE" (quote sequence) (quote ((om-load-inputfun (quote input-funbox) "something" "PATCH" nil) (om-load-inputfun (quote input-funbox) "more things" "OPPATCH" nil))) (om-make-point 145771/1938 532973/1938) nil nil nil 2))) (when (fboundp (quote set-active)) (set-active box nil)) box) (let ((box (om-load-boxcall (quote lispfun) "CAR 2" (quote car) (quote ((om-load-inputfun (quote input-funbox) "X" "X" nil))) (om-make-point 380473/1938 365285/1938) nil nil nil nil 1))) (when (fboundp (quote set-active)) (set-active box nil)) box) (let ((box (om-load-boxcall (quote lispfun) "CAR" (quote car) (quote ((om-load-inputfun (quote input-funbox) "X" "X" nil))) (om-make-point 283573/1938 396293/1938) nil nil nil nil 1))) (when (fboundp (quote set-active)) (set-active box nil)) box) (let ((box (om-load-boxcall (quote abstraction) "not parallel" (om-load-patch-abs1 "not parallel" (quote ((let ((box (om-load-boxout "output" 0 (om-make-point 4942/19 6830/19) (quote ((om-load-inputfun (quote input-funbox) "" "out" nil))) nil nil))) (when (fboundp (quote set-active)) (set-active box nil)) box) (let ((box (om-load-boxin "input 2" 1 (om-make-point 254 85) "" nil nil nil))) (when (fboundp (quote set-active)) (set-active box nil)) box) (let ((box (om-load-boxin "input" 0 (om-make-point 50 50) "" nil nil nil))) (when (fboundp (quote set-active)) (set-active box nil)) box) (let ((box (om-load-boxcall (quote genfun) "OMANDV 3" (quote t2l::omandv) (quote ((om-load-inputfun (quote input-funbox) "" "XS" nil) (om-load-inputfun (quote input-funbox) "" "XS" nil))) (om-make-point 8248/19 7191/19) nil nil nil nil 1))) (when (fboundp (quote set-active)) (set-active box nil)) box) (let ((box (om-load-boxcall (quote genfun) "OMNOTV 2" (quote t2l::omnotv) (quote ((om-load-inputfun (quote input-funbox) "" "X" nil))) (om-make-point 9711/19 6222/19) nil nil nil nil 1))) (when (fboundp (quote set-active)) (set-active box nil)) box) (let ((box (om-load-boxcall (quote genfun) "OMANDV 2" (quote t2l::omandv) (quote ((om-load-inputfun (quote input-funbox) "" "XS" nil) (om-load-inputfun (quote input-funbox) "" "XS" nil))) (om-make-point 9730/19 5158/19) nil nil nil nil 1))) (when (fboundp (quote set-active)) (set-active box nil)) box) (let ((box (om-load-boxcall (quote lispfun) "CADR 4" (quote cadr) (quote ((om-load-inputfun (quote input-funbox) "X" "X" nil))) (om-make-point 10224/19 3144/19) nil nil nil nil 1))) (when (fboundp (quote set-active)) (set-active box nil)) box) (let ((box (om-load-boxcall (quote bastype) "aux 4" (quote t) (quote nil) (om-make-point 10908/19 3429/19) (om-make-point 26 28) 0 "0" nil))) (when (fboundp (quote set-active)) (set-active box nil)) box) (let ((box (om-load-boxcall (quote genfun) "OM=V 4" (quote t2l::om=v) (quote ((om-load-inputfun (quote input-funbox) "" "XS" nil) (om-load-inputfun (quote input-funbox) "" "XS" nil))) (om-make-point 10528/19 3999/19) nil nil nil nil 1))) (when (fboundp (quote set-active)) (set-active box nil)) box) (let ((box (om-load-boxcall (quote lispfun) "CADR 3" (quote cadr) (quote ((om-load-inputfun (quote input-funbox) "X" "X" nil))) (om-make-point 8894/19 3144/19) nil nil nil nil 1))) (when (fboundp (quote set-active)) (set-active box nil)) box) (let ((box (om-load-boxcall (quote bastype) "aux 3" (quote t) (quote nil) (om-make-point 9578/19 3429/19) (om-make-point 26 28) 0 "0" nil))) (when (fboundp (quote set-active)) (set-active box nil)) box) (let ((box (om-load-boxcall (quote genfun) "OM=V 3" (quote t2l::om=v) (quote ((om-load-inputfun (quote input-funbox) "" "XS" nil) (om-load-inputfun (quote input-funbox) "" "XS" nil))) (om-make-point 9198/19 3999/19) nil nil nil nil 1))) (when (fboundp (quote set-active)) (set-active box nil)) box) (let ((box (om-load-boxcall (quote genfun) "OMNOTV" (quote t2l::omnotv) (quote ((om-load-inputfun (quote input-funbox) "" "X" nil))) (om-make-point 6671/19 6222/19) nil nil nil nil 1))) (when (fboundp (quote set-active)) (set-active box nil)) box) (let ((box (om-load-boxcall (quote genfun) "OMANDV" (quote t2l::omandv) (quote ((om-load-inputfun (quote input-funbox) "" "XS" nil) (om-load-inputfun (quote input-funbox) "" "XS" nil))) (om-make-point 6690/19 5158/19) nil nil nil nil 1))) (when (fboundp (quote set-active)) (set-active box nil)) box) (let ((box (om-load-boxcall (quote lispfun) "CADR 2" (quote cadr) (quote ((om-load-inputfun (quote input-funbox) "X" "X" nil))) (om-make-point 7184/19 3144/19) nil nil nil nil 1))) (when (fboundp (quote set-active)) (set-active box nil)) box) (let ((box (om-load-boxcall (quote bastype) "aux 2" (quote t) (quote nil) (om-make-point 7868/19 3429/19) (om-make-point 26 28) 7 "7" nil))) (when (fboundp (quote set-active)) (set-active box nil)) box) (let ((box (om-load-boxcall (quote genfun) "OM=V 2" (quote t2l::om=v) (quote ((om-load-inputfun (quote input-funbox) "" "XS" nil) (om-load-inputfun (quote input-funbox) "" "XS" nil))) (om-make-point 7488/19 3999/19) nil nil nil nil 1))) (when (fboundp (quote set-active)) (set-active box nil)) box) (let ((box (om-load-boxcall (quote lispfun) "CADR" (quote cadr) (quote ((om-load-inputfun (quote input-funbox) "X" "X" nil))) (om-make-point 5854/19 3144/19) nil nil nil nil 1))) (when (fboundp (quote set-active)) (set-active box nil)) box) (let ((box (om-load-boxcall (quote bastype) "aux" (quote t) (quote nil) (om-make-point 6538/19 3429/19) (om-make-point 26 28) 7 "7" nil))) (when (fboundp (quote set-active)) (set-active box nil)) box) (let ((box (om-load-boxcall (quote genfun) "OM=V" (quote t2l::om=v) (quote ((om-load-inputfun (quote input-funbox) "" "XS" nil) (om-load-inputfun (quote input-funbox) "" "XS" nil))) (om-make-point 6158/19 3999/19) nil nil nil nil 1))) (when (fboundp (quote set-active)) (set-active box nil)) box))) (quote ((4 0 0 0 nil 0) (12 0 3 0 nil 0) (4 0 3 1 nil 0) (5 0 4 0 nil 0) (11 0 5 0 nil 0) (8 0 5 1 nil 0) (1 0 6 0 nil 0) (6 0 8 0 nil 0) (7 0 8 1 nil 0) (2 0 9 0 nil 0) (9 0 11 0 nil 0) (10 0 11 1 nil 0) (13 0 12 0 nil 0) (19 0 13 0 nil 0) (16 0 13 1 nil 0) (1 0 14 0 nil 0) (14 0 16 0 nil 0) (15 0 16 1 nil 0) (2 0 17 0 nil 0) (17 0 19 0 nil 0) (18 0 19 1 nil 0))) 6.16 nil "" (om-make-point -8 -8) (om-make-point 1366 696)) (quote ((om-load-inputfun (quote input-funbox) "" "input" nil) (om-load-inputfun (quote input-funbox) "" "input 2" nil))) (om-make-point 849241/1938 433457/1938) nil nil nil "not parallel"))) (when (fboundp (quote set-active)) (set-active box nil)) box) (let ((box (om-load-boxcall (quote genfun) "OMORV" (quote t2l::omorv) (quote ((om-load-inputfun (quote input-funbox) "" "XS" nil) (om-load-inputfun (quote input-funbox) "" "XS" nil))) (om-make-point 4277/19 6830/19) nil nil nil nil 1))) (when (fboundp (quote set-active)) (set-active box nil)) box))) (quote ((3 0 0 0 nil 0) (2 0 0 1 nil 0) (10 0 1 0 nil 0) (8 0 4 0 nil 0) (7 0 4 1 nil 0) (0 0 5 0 nil 0) (5 0 6 0 nil 0) (9 0 6 1 nil 0) (2 0 7 0 nil 0) (3 0 8 0 nil 0) (3 0 9 0 nil 0) (2 0 9 1 nil 0) (6 1 10 0 nil 0) (9 0 10 1 nil 0))) 6.16 nil "" (om-make-point 200 200) (om-make-point 500 380)) (quote ((om-load-inputfun (quote input-funbox) "" "input" nil) (om-load-inputfun (quote input-funbox) "" "input 2" nil))) (om-make-point 334212/2261 550591/2261) nil nil nil nil))) (when (fboundp (quote set-active)) (set-active box nil)) box) (let ((box (om-load-boxcall (quote bastype) "aux" (quote t) (quote nil) (om-make-point 318 189) (om-make-point 24 28) (quote t) "t" nil))) (when (fboundp (quote set-active)) (set-active box nil)) box) (let ((box (om-load-boxcall (quote lispfun) "EQUAL" (quote equal) (quote ((om-load-inputfun (quote input-funbox) "X" "X" nil) (om-load-inputfun (quote input-funbox) "Y" "Y" nil))) (om-make-point 282 165) nil nil nil nil 1))) (when (fboundp (quote set-active)) (set-active box nil)) box) (let ((box (om-load-boxcall (quote genfun) "OMIF" (quote omif) (quote ((om-load-inputfun (quote input-funbox) "IF" "TEST" nil) (om-load-inputfun (quote input-funbox) "THEN" "ACTION" (quote t)) (om-load-inputfun (quote input-funbox) "ELSE" "ELSE" nil))) (om-make-point 306 219) nil nil nil nil 1))) (when (fboundp (quote set-active)) (set-active box nil)) box) (let ((box (om-load-boxout "output" 0 (om-make-point 0 429) (quote ((om-load-inputfun (quote input-funbox) "" "out" nil))) nil nil))) (when (fboundp (quote set-active)) (set-active box nil)) box) (let ((box (om-load-boxin "input 2" 1 (om-make-point 209 80) "" nil (list (list 60 67) 7) nil))) (when (fboundp (quote set-active)) (set-active box nil)) box) (let ((box (om-load-boxin "input" 0 (om-make-point 5 45) "" "input" (list (list 60 67) 7) nil))) (when (fboundp (quote set-active)) (set-active box nil)) box))) (quote ((7 0 0 0 nil 0) (8 0 1 0 nil 0) (8 0 2 0 nil 0) (7 0 2 1 nil 0) (1 0 4 0 nil 0) (0 0 4 1 nil 0) (4 0 5 0 nil 0) (3 0 5 1 nil 0) (2 0 5 2 nil 0) (5 0 6 0 nil 0))) 6.16 nil "" (om-make-point 200 200) (om-make-point 500 380)) (quote ((om-load-inputfun (quote input-funbox) "" "input" nil) (om-load-inputfun (quote input-funbox) "" "input 2" nil))) (om-make-point 23 115) nil (list nil) "l" nil))) (when (fboundp (quote set-active)) (set-active box nil)) box) (let ((box (om-load-boxout "output" 0 (om-make-point 5 260) (quote ((om-load-inputfun (quote input-funbox) "" "out" nil))) nil nil))) (when (fboundp (quote set-active)) (set-active box nil)) box) (let ((box (om-load-boxin "input 2" 1 (om-make-point 55 45) "" nil nil nil))) (when (fboundp (quote set-active)) (set-active box nil)) box) (let ((box (om-load-boxin "input" 0 (om-make-point 5 45) "" nil (list (list 60 64) 4) nil))) (when (fboundp (quote set-active)) (set-active box nil)) box))) (quote ((1 0 0 0 nil 0) (3 0 0 1 nil 0) (4 0 1 0 nil 0) (0 0 2 0 nil 0))) 6.16 nil "" (om-make-point 200 200) (om-make-point 500 380)) (quote ((om-load-inputfun (quote input-funbox) "" "input" nil) (om-load-inputfun (quote input-funbox) "" "input 2" nil))) (om-make-point 161 287) nil nil "l" nil))) (when (fboundp (quote set-active)) (set-active box nil)) box) (let ((box (let ((box (om-load-boxcall (quote genfun) "LIST-ELEMENTS" (quote list-elements) (quote ((om-load-inputfun (quote input-funbox) "a list" "LIST" nil))) (om-make-point 142 129) nil nil nil nil 2))) (setf (numouts box) 2) box))) (when (fboundp (quote set-active)) (set-active box nil)) box) (let ((box (om-load-boxcall (quote abstraction) "chord-intervals 2" (om-load-patch-abs1 "chord-intervals" (quote ((let ((box (om-load-boxcall (quote lispfun) "MAPCAR" (quote mapcar) (quote ((om-load-inputfun (quote input-funbox) "FUNCTION" "FUNCTION" nil) (om-load-inputfun (quote input-funbox) "LIST" "LIST" nil) (om-load-inputfun (quote input-funbox) "add-input" "add-input" nil))) (om-make-point 139 351) nil nil nil nil 1))) (when (fboundp (quote set-active)) (set-active box nil)) box) (let ((box (om-load-boxcall (quote lispfun) "LIST" (quote list) (quote ((om-load-inputfun (quote input-funbox) "add-input" "add-input" nil) (om-load-inputfun (quote input-funbox) "add-input" "add-input" nil))) (om-make-point 127 296) nil nil "l" nil 1))) (when (fboundp (quote set-active)) (set-active box nil)) box) (let ((box (om-load-boxcall (quote abstraction) "om-%12" (om-load-patch-abs1 "om-%12" (quote ((let ((box (om-load-boxout "output" 0 (om-make-point 50 331) (quote ((om-load-inputfun (quote input-funbox) "" "out" nil))) nil nil))) (when (fboundp (quote set-active)) (set-active box nil)) box) (let ((box (om-load-boxin "input" 0 (om-make-point 212 50) "" nil nil nil))) (when (fboundp (quote set-active)) (set-active box nil)) box) (let ((box (om-load-boxcall (quote lispfun) "MAPCAR" (quote mapcar) (quote ((om-load-inputfun (quote input-funbox) "FUNCTION" "FUNCTION" nil) (om-load-inputfun (quote input-funbox) "LIST" "LIST" nil) (om-load-inputfun (quote input-funbox) "add-input" "add-input" nil))) (om-make-point 207 188) nil nil nil nil 1))) (when (fboundp (quote set-active)) (set-active box nil)) box) (let ((box (om-load-boxcall (quote genfun) "OM-V" (quote t2l::om-v) (quote ((om-load-inputfun (quote input-funbox) "" "X" nil) (om-load-inputfun (quote input-funbox) "" "XS" nil))) (om-make-point 177 129) nil nil "l" nil 1))) (when (fboundp (quote set-active)) (set-active box nil)) box) (let ((box (let ((box (om-load-boxcall (quote genfun) "LIST-ELEMENTS" (quote list-elements) (quote ((om-load-inputfun (quote input-funbox) "a list" "LIST" nil))) (om-make-point 210 121) nil nil nil nil 2))) (setf (numouts box) 2) box))) (when (fboundp (quote set-active)) (set-active box nil)) box) (let ((box (om-load-boxcall (quote lispfun) "ABSV" (quote t2l::absv) (quote ((om-load-inputfun (quote input-funbox) "K" "K" nil))) (om-make-point 169 188) nil nil "l" nil 1))) (when (fboundp (quote set-active)) (set-active box nil)) box) (let ((box (om-load-boxcall (quote lispfun) "MAPCAR 2" (quote mapcar) (quote ((om-load-inputfun (quote input-funbox) "FUNCTION" "FUNCTION" nil) (om-load-inputfun (quote input-funbox) "LIST" "LIST" nil))) (om-make-point 184 233) nil nil nil nil 1))) (when (fboundp (quote set-active)) (set-active box nil)) box) (let ((box (om-load-boxcall (quote genfun) "OM%V" (quote t2l::om%v) (quote ((om-load-inputfun (quote input-funbox) "" "N" nil) (om-load-inputfun (quote input-funbox) "" "D" nil))) (om-make-point 107 221) nil nil "l" nil 1))) (when (fboundp (quote set-active)) (set-active box nil)) box) (let ((box (om-load-boxcall (quote bastype) "aux" (quote t) (quote nil) (om-make-point 129 191) (om-make-point 32 28) 12 "12" nil))) (when (fboundp (quote set-active)) (set-active box nil)) box) (let ((box (om-load-boxcall (quote lispfun) "MAPCAR 3" (quote mapcar) (quote ((om-load-inputfun (quote input-funbox) "FUNCTION" "FUNCTION" nil) (om-load-inputfun (quote input-funbox) "LIST" "LIST" nil))) (om-make-point 125 278) nil nil nil nil 1))) (when (fboundp (quote set-active)) (set-active box nil)) box))) (quote ((9 0 0 0 nil 0) (3 0 2 0 nil 0) (4 0 2 1 nil 0) (4 1 2 2 nil 0) (1 0 4 0 nil 0) (5 0 6 0 nil 0) (2 0 6 1 nil 0) (8 0 7 1 nil 0) (7 0 9 0 nil 0) (6 0 9 1 nil 0))) 6.16 nil "" (om-make-point 200 200) (om-make-point 500 400)) (quote ((om-load-inputfun (quote input-funbox) "" "input" nil))) (om-make-point 507/2 1805/8) nil (list (list nil nil nil nil nil nil)) nil "om-%12"))) (when (fboundp (quote set-active)) (set-active box nil)) box) (let ((box (om-load-boxcall (quote genfun) "HAS-NULL-VALUES" (quote t2l::has-null-values) (quote ((om-load-inputfun (quote input-funbox) "" "LIST" nil))) (om-make-point 245 29) nil nil "l" nil 1))) (when (fboundp (quote set-active)) (set-active box nil)) box) (let ((box (om-load-boxcall (quote lispfun) "REMOVE-IF" (quote remove-if) (quote ((om-load-inputfun (quote input-funbox) "PREDICATE" "PREDICATE" nil) (om-load-inputfun (quote input-funbox) "SEQUENCE" "SEQUENCE" nil))) (om-make-point 286 94) nil nil nil nil 1))) (when (fboundp (quote set-active)) (set-active box nil)) box) (let ((box (om-load-boxcall (quote genfun) "MAT-TRANS" (quote mat-trans) (quote ((om-load-inputfun (quote input-funbox) "a list of lists" "MATRIX" nil))) (om-make-point 254 152) nil nil nil nil 1))) (when (fboundp (quote set-active)) (set-active box nil)) box) (let ((box (om-load-boxcall (quote lispfun) "COMBINATIONS-OF2" (quote t2l::combinations-of2) (quote ((om-load-inputfun (quote input-funbox) "XS" "XS" nil))) (om-make-point 329 42) nil nil nil nil 1))) (when (fboundp (quote set-active)) (set-active box nil)) box) (let ((box (om-load-boxout "output" 0 (om-make-point 15 413) (quote ((om-load-inputfun (quote input-funbox) "" "out" nil))) nil nil))) (when (fboundp (quote set-active)) (set-active box nil)) box) (let ((box (om-load-boxin "chord" 0 (om-make-point 5 15) "" "chord" (list 0 4 7 10) nil))) (when (fboundp (quote set-active)) (set-active box nil)) box))) (quote ((1 0 0 0 nil 0) (4 0 0 1 nil 0) (2 0 0 2 nil 0) (5 0 2 0 nil 0) (3 0 4 0 nil 0) (6 0 4 1 nil 0) (4 0 5 0 nil 0) (8 0 6 0 nil 0) (0 0 7 0 nil 0))) 6.16 nil "" (om-make-point 200 200) (om-make-point 500 400)) (quote ((om-load-inputfun (quote input-funbox) "" "chord" nil))) (om-make-point 196 207) nil (list (list (list (list 60 65) nil) (list (list 60 67) nil) (list (list 60 72) nil) (list (list 65 67) nil) (list (list 65 72) nil) (list (list 67 72) nil))) nil "chord-intervals"))) (when (fboundp (quote set-active)) (set-active box nil)) box) (let ((box (om-load-boxcall (quote abstraction) "chord-intervals" (om-load-patch-abs1 "chord-intervals" (quote ((let ((box (om-load-boxcall (quote lispfun) "MAPCAR" (quote mapcar) (quote ((om-load-inputfun (quote input-funbox) "FUNCTION" "FUNCTION" nil) (om-load-inputfun (quote input-funbox) "LIST" "LIST" nil) (om-load-inputfun (quote input-funbox) "add-input" "add-input" nil))) (om-make-point 139 351) nil nil nil nil 1))) (when (fboundp (quote set-active)) (set-active box nil)) box) (let ((box (om-load-boxcall (quote lispfun) "LIST" (quote list) (quote ((om-load-inputfun (quote input-funbox) "add-input" "add-input" nil) (om-load-inputfun (quote input-funbox) "add-input" "add-input" nil))) (om-make-point 127 296) nil nil "l" nil 1))) (when (fboundp (quote set-active)) (set-active box nil)) box) (let ((box (om-load-boxcall (quote abstraction) "om-%12" (om-load-patch-abs1 "om-%12" (quote ((let ((box (om-load-boxout "output" 0 (om-make-point 50 331) (quote ((om-load-inputfun (quote input-funbox) "" "out" nil))) nil nil))) (when (fboundp (quote set-active)) (set-active box nil)) box) (let ((box (om-load-boxin "input" 0 (om-make-point 212 50) "" nil nil nil))) (when (fboundp (quote set-active)) (set-active box nil)) box) (let ((box (om-load-boxcall (quote lispfun) "MAPCAR" (quote mapcar) (quote ((om-load-inputfun (quote input-funbox) "FUNCTION" "FUNCTION" nil) (om-load-inputfun (quote input-funbox) "LIST" "LIST" nil) (om-load-inputfun (quote input-funbox) "add-input" "add-input" nil))) (om-make-point 207 188) nil nil nil nil 1))) (when (fboundp (quote set-active)) (set-active box nil)) box) (let ((box (om-load-boxcall (quote genfun) "OM-V" (quote t2l::om-v) (quote ((om-load-inputfun (quote input-funbox) "" "X" nil) (om-load-inputfun (quote input-funbox) "" "XS" nil))) (om-make-point 177 129) nil nil "l" nil 1))) (when (fboundp (quote set-active)) (set-active box nil)) box) (let ((box (let ((box (om-load-boxcall (quote genfun) "LIST-ELEMENTS" (quote list-elements) (quote ((om-load-inputfun (quote input-funbox) "a list" "LIST" nil))) (om-make-point 210 121) nil nil nil nil 2))) (setf (numouts box) 2) box))) (when (fboundp (quote set-active)) (set-active box nil)) box) (let ((box (om-load-boxcall (quote lispfun) "ABSV" (quote t2l::absv) (quote ((om-load-inputfun (quote input-funbox) "K" "K" nil))) (om-make-point 169 188) nil nil "l" nil 1))) (when (fboundp (quote set-active)) (set-active box nil)) box) (let ((box (om-load-boxcall (quote lispfun) "MAPCAR 2" (quote mapcar) (quote ((om-load-inputfun (quote input-funbox) "FUNCTION" "FUNCTION" nil) (om-load-inputfun (quote input-funbox) "LIST" "LIST" nil))) (om-make-point 184 233) nil nil nil nil 1))) (when (fboundp (quote set-active)) (set-active box nil)) box) (let ((box (om-load-boxcall (quote genfun) "OM%V" (quote t2l::om%v) (quote ((om-load-inputfun (quote input-funbox) "" "N" nil) (om-load-inputfun (quote input-funbox) "" "D" nil))) (om-make-point 107 221) nil nil "l" nil 1))) (when (fboundp (quote set-active)) (set-active box nil)) box) (let ((box (om-load-boxcall (quote bastype) "aux" (quote t) (quote nil) (om-make-point 129 191) (om-make-point 32 28) 12 "12" nil))) (when (fboundp (quote set-active)) (set-active box nil)) box) (let ((box (om-load-boxcall (quote lispfun) "MAPCAR 3" (quote mapcar) (quote ((om-load-inputfun (quote input-funbox) "FUNCTION" "FUNCTION" nil) (om-load-inputfun (quote input-funbox) "LIST" "LIST" nil))) (om-make-point 125 278) nil nil nil nil 1))) (when (fboundp (quote set-active)) (set-active box nil)) box))) (quote ((9 0 0 0 nil 0) (3 0 2 0 nil 0) (4 0 2 1 nil 0) (4 1 2 2 nil 0) (1 0 4 0 nil 0) (5 0 6 0 nil 0) (2 0 6 1 nil 0) (8 0 7 1 nil 0) (7 0 9 0 nil 0) (6 0 9 1 nil 0))) 6.16 nil "" (om-make-point 200 200) (om-make-point 500 400)) (quote ((om-load-inputfun (quote input-funbox) "" "input" nil))) (om-make-point 507/2 1805/8) nil (list (list nil nil nil nil nil nil)) nil "om-%12"))) (when (fboundp (quote set-active)) (set-active box nil)) box) (let ((box (om-load-boxcall (quote genfun) "HAS-NULL-VALUES" (quote t2l::has-null-values) (quote ((om-load-inputfun (quote input-funbox) "" "LIST" nil))) (om-make-point 245 29) nil nil "l" nil 1))) (when (fboundp (quote set-active)) (set-active box nil)) box) (let ((box (om-load-boxcall (quote lispfun) "REMOVE-IF" (quote remove-if) (quote ((om-load-inputfun (quote input-funbox) "PREDICATE" "PREDICATE" nil) (om-load-inputfun (quote input-funbox) "SEQUENCE" "SEQUENCE" nil))) (om-make-point 286 94) nil nil nil nil 1))) (when (fboundp (quote set-active)) (set-active box nil)) box) (let ((box (om-load-boxcall (quote genfun) "MAT-TRANS" (quote mat-trans) (quote ((om-load-inputfun (quote input-funbox) "a list of lists" "MATRIX" nil))) (om-make-point 254 152) nil nil nil nil 1))) (when (fboundp (quote set-active)) (set-active box nil)) box) (let ((box (om-load-boxcall (quote lispfun) "COMBINATIONS-OF2" (quote t2l::combinations-of2) (quote ((om-load-inputfun (quote input-funbox) "XS" "XS" nil))) (om-make-point 329 42) nil nil nil nil 1))) (when (fboundp (quote set-active)) (set-active box nil)) box) (let ((box (om-load-boxout "output" 0 (om-make-point 15 413) (quote ((om-load-inputfun (quote input-funbox) "" "out" nil))) nil nil))) (when (fboundp (quote set-active)) (set-active box nil)) box) (let ((box (om-load-boxin "chord" 0 (om-make-point 5 15) "" "chord" (list 0 4 7 10) nil))) (when (fboundp (quote set-active)) (set-active box nil)) box))) (quote ((1 0 0 0 nil 0) (4 0 0 1 nil 0) (2 0 0 2 nil 0) (5 0 2 0 nil 0) (3 0 4 0 nil 0) (6 0 4 1 nil 0) (4 0 5 0 nil 0) (8 0 6 0 nil 0) (0 0 7 0 nil 0))) 6.16 nil "" (om-make-point 200 200) (om-make-point 500 400)) (quote ((om-load-inputfun (quote input-funbox) "" "chord" nil))) (om-make-point 106 207) nil (list (list (list (list 60 64) nil) (list (list 60 67) nil) (list (list 60 72) nil) (list (list 64 67) nil) (list (list 64 72) nil) (list (list 67 72) nil))) nil "chord-intervals"))) (when (fboundp (quote set-active)) (set-active box nil)) box) (let ((box (om-load-boxout "output" 0 (om-make-point 5 440) (quote ((om-load-inputfun (quote input-funbox) "" "out" nil))) nil nil))) (when (fboundp (quote set-active)) (set-active box nil)) box) (let ((box (om-load-boxin "chords" 0 (om-make-point 5 45) "" "chords" (list (list 60 64 67 72) (list 60 65 67 72)) nil))) (when (fboundp (quote set-active)) (set-active box nil)) box))) (quote ((1 0 0 0 nil 0) (4 0 0 1 nil 0) (3 0 1 1 nil 0) (6 0 2 0 nil 0) (2 1 3 0 nil 0) (2 0 4 0 nil 0) (0 0 5 0 nil 0))) 6.16 nil "" (om-make-point 200 200) (om-make-point 500 380)) (quote ((om-load-inputfun (quote input-funbox) "" "input" nil))) (om-make-point 71 70) nil nil nil "compare intervals"))) (when (fboundp (quote set-active)) (set-active box nil)) box) (let ((box (om-load-boxcall (quote bastype) "aux" (quote t) (quote nil) (om-make-point 153 138) (om-make-point 26 28) (quote t) "T" nil))) (when (fboundp (quote set-active)) (set-active box nil)) box) (let ((box (om-load-boxcall (quote lispfun) "CDR" (quote cdr) (quote ((om-load-inputfun (quote input-funbox) "X" "X" nil))) (om-make-point 35 121) nil nil nil nil 1))) (when (fboundp (quote set-active)) (set-active box nil)) box) (let ((box (om-load-boxcall (quote genfun) "OMIF" (quote omif) (quote ((om-load-inputfun (quote input-funbox) "IF" "TEST" nil) (om-load-inputfun (quote input-funbox) "THEN" "ACTION" nil) (om-load-inputfun (quote input-funbox) "ELSE" "ELSE" nil))) (om-make-point 133 168) nil nil nil nil 1))) (when (fboundp (quote set-active)) (set-active box nil)) box) (let ((box (om-load-boxout "output" 0 (om-make-point 5 240) (quote ((om-load-inputfun (quote input-funbox) "" "out" nil))) nil nil))) (when (fboundp (quote set-active)) (set-active box nil)) box) (let ((box (om-load-boxin "chords" 0 (om-make-point 5 45) "" "chords" nil nil))) (when (fboundp (quote set-active)) (set-active box nil)) box))) (quote ((5 0 0 0 nil 0) (5 0 2 0 nil 0) (2 0 3 0 nil 0) (0 0 3 1 nil 0) (1 0 3 2 nil 0) (3 0 4 0 nil 0))) 6.16 nil "" (om-make-point 200 200) (om-make-point 500 380)) (quote ((om-load-inputfun (quote input-funbox) "" "input" nil))) (om-make-point 206 141) nil nil "l" nil))) (when (fboundp (quote set-active)) (set-active box nil)) box) (let ((box (om-load-boxcall (quote abstraction) "mypatch" (om-load-patch-abs1 "mypatch" (quote ((let ((box (om-load-boxcall (quote abstraction) "compare" (om-load-patch-abs1 "compare" (quote ((let ((box (om-load-boxcall (quote bastype) "aux" (quote t) (quote nil) (om-make-point 321 279) (om-make-point 87 28) (list 0 4 7 10 12) "(0 4 7 10 12)" nil))) (when (fboundp (quote set-active)) (set-active box nil)) box) (let ((box (om-load-boxcall (quote patch-box) "intervalswithinch 3" (quote ("elements" "paradigms" "myparadigm 3" "hidden5ths" "intervalswithinch")) (quote ((om-load-inputfun (quote input-funbox) "" "chord" (list 0 4 7 10)))) (om-make-point 279 309) nil nil nil nil 1))) (when (fboundp (quote set-active)) (set-active box nil)) box) (let ((box (om-load-boxcall (quote patch-box) "intervalswithinch" (quote ("elements" "paradigms" "myparadigm 3" "hidden5ths" "intervalswithinch")) (quote ((om-load-inputfun (quote input-funbox) "" "chord" (list 0 4 7 10)))) (om-make-point 219 209) nil nil nil nil 1))) (when (fboundp (quote set-active)) (set-active box nil)) box) (let ((box (om-load-boxcall (quote patch-box) "intervalswithinch 2" (quote ("elements" "paradigms" "myparadigm 3" "hidden5ths" "intervalswithinch")) (quote ((om-load-inputfun (quote input-funbox) "" "chord" nil))) (om-make-point 56 207) nil nil nil "intervalswithinch" 1))) (when (fboundp (quote set-active)) (set-active box nil)) box) (let ((box (om-load-boxcall (quote genfun) "MAP-ANDV" (quote t2l::map-andv) (quote ((om-load-inputfun (quote input-funbox) "" "FN" nil) (om-load-inputfun (quote input-funbox) "" "LIST" nil))) (om-make-point 206 367) nil nil nil nil 1))) (when (fboundp (quote set-active)) (set-active box nil)) box) (let ((box (om-load-boxcall (quote abstraction) "mypatch" (om-load-patch-abs1 "mypatch" (quote ((let ((box (om-load-boxcall (quote genfun) "MAP-ANDV" (quote t2l::map-andv) (quote ((om-load-inputfun (quote input-funbox) "" "FN" nil) (om-load-inputfun (quote input-funbox) "" "LIST" nil))) (om-make-point 38 189) nil nil nil nil 1))) (when (fboundp (quote set-active)) (set-active box nil)) box) (let ((box (om-load-boxcall (quote abstraction) "mypatch" (om-load-patch-abs1 "mypatch" (quote ((let ((box (om-load-boxcall (quote lispfun) "CAR 2" (quote car) (quote ((om-load-inputfun (quote input-funbox) "X" "X" nil))) (om-make-point 317 110) nil nil nil nil 1))) (when (fboundp (quote set-active)) (set-active box nil)) box) (let ((box (om-load-boxcall (quote lispfun) "CAR" (quote car) (quote ((om-load-inputfun (quote input-funbox) "X" "X" nil))) (om-make-point 277 111) nil nil nil nil 1))) (when (fboundp (quote set-active)) (set-active box nil)) box) (let ((box (om-load-boxcall (quote abstraction) "mypatch 2" (om-load-patch-abs1 "mypatch 2" (quote ((let ((box (om-load-boxcall (quote lispfun) "LIST" (quote list) (quote ((om-load-inputfun (quote input-funbox) "add-input" "add-input" nil) (om-load-inputfun (quote input-funbox) "add-input" "add-input" nil))) (om-make-point 37 175) nil nil nil nil 1))) (when (fboundp (quote set-active)) (set-active box nil)) box) (let ((box (om-load-boxout "output" 0 (om-make-point 342 428) (quote ((om-load-inputfun (quote input-funbox) "" "out" nil))) nil nil))) (when (fboundp (quote set-active)) (set-active box nil)) box) (let ((box (om-load-boxin "input 2" 1 (om-make-point 137 46) "" nil nil nil))) (when (fboundp (quote set-active)) (set-active box nil)) box) (let ((box (om-load-boxin "input" 0 (om-make-point 50 50) "" nil nil nil))) (when (fboundp (quote set-active)) (set-active box nil)) box) (let ((box (om-load-boxcall (quote abstraction) "mypatch" (om-load-patch-abs1 "mypatch" (quote ((let ((box (om-load-boxcall (quote genfun) "OM=V" (quote t2l::om=v) (quote ((om-load-inputfun (quote input-funbox) "" "XS" nil) (om-load-inputfun (quote input-funbox) "" "XS" nil))) (om-make-point 37 28) nil nil "l" nil 1))) (when (fboundp (quote set-active)) (set-active box nil)) box) (let ((box (om-load-boxcall (quote genfun) "MAP2ANDV" (quote t2l::map2andv) (quote ((om-load-inputfun (quote input-funbox) "" "FN" nil) (om-load-inputfun (quote input-funbox) "" "LIST1" nil) (om-load-inputfun (quote input-funbox) "" "LIST2" nil))) (om-make-point 87 87) nil nil nil nil 1))) (when (fboundp (quote set-active)) (set-active box nil)) box) (let ((box (om-load-boxout "output" 0 (om-make-point 50 2974/19) (quote ((om-load-inputfun (quote input-funbox) "" "out" nil))) nil nil))) (when (fboundp (quote set-active)) (set-active box nil)) box) (let ((box (om-load-boxin "input 2" 1 (om-make-point 2586/19 10) "" nil nil nil))) (when (fboundp (quote set-active)) (set-active box nil)) box) (let ((box (om-load-boxin "input" 0 (om-make-point 1636/19 11) "" nil nil nil))) (when (fboundp (quote set-active)) (set-active box nil)) box))) (quote ((0 0 1 0 nil 0) (4 0 1 1 nil 0) (3 0 1 2 nil 0) (1 0 2 0 nil 0))) 6.16 nil "" (om-make-point 200 200) (om-make-point 500 360)) (quote ((om-load-inputfun (quote input-funbox) "" "input" nil) (om-load-inputfun (quote input-funbox) "" "input 2" nil))) (om-make-point 386287/1938 499007/1938) nil nil nil "mypatch"))) (when (fboundp (quote set-active)) (set-active box nil)) box) (let ((box (om-load-boxcall (quote lispfun) "PRINT" (quote print) (quote ((om-load-inputfun (quote input-funbox) "SOMETHING" "SOMETHING" nil))) (om-make-point 134143/1938 447701/1938) nil nil nil nil 1))) (when (fboundp (quote set-active)) (set-active box nil)) box) (let ((box (om-load-seqbox "SEQUENCE" (quote sequence) (quote ((om-load-inputfun (quote input-funbox) "something" "PATCH" nil) (om-load-inputfun (quote input-funbox) "more things" "OPPATCH" nil))) (om-make-point 145771/1938 532973/1938) nil nil nil 2))) (when (fboundp (quote set-active)) (set-active box nil)) box) (let ((box (om-load-boxcall (quote lispfun) "CAR 2" (quote car) (quote ((om-load-inputfun (quote input-funbox) "X" "X" nil))) (om-make-point 380473/1938 365285/1938) nil nil nil nil 1))) (when (fboundp (quote set-active)) (set-active box nil)) box) (let ((box (om-load-boxcall (quote lispfun) "CAR" (quote car) (quote ((om-load-inputfun (quote input-funbox) "X" "X" nil))) (om-make-point 283573/1938 396293/1938) nil nil nil nil 1))) (when (fboundp (quote set-active)) (set-active box nil)) box) (let ((box (om-load-boxcall (quote abstraction) "not parallel" (om-load-patch-abs1 "not parallel" (quote ((let ((box (om-load-boxcall (quote genfun) "OMORV" (quote t2l::omorv) (quote ((om-load-inputfun (quote input-funbox) "" "XS" nil) (om-load-inputfun (quote input-funbox) "" "XS" nil) (om-load-inputfun (quote input-funbox) "" "XS" nil))) (om-make-point 838 385) nil nil nil nil 1))) (when (fboundp (quote set-active)) (set-active box nil)) box) (let ((box (om-load-boxcall (quote genfun) "OMANDV 6" (quote t2l::omandv) (quote ((om-load-inputfun (quote input-funbox) "" "XS" nil) (om-load-inputfun (quote input-funbox) "" "XS" nil))) (om-make-point 17368/19 6241/19) nil nil nil nil 1))) (when (fboundp (quote set-active)) (set-active box nil)) box) (let ((box (om-load-boxcall (quote genfun) "ALL>V 2" (quote t2l::all>v) (quote ((om-load-inputfun (quote input-funbox) "" "XS" nil))) (om-make-point 898 272) nil nil nil nil 1))) (when (fboundp (quote set-active)) (set-active box nil)) box) (let ((box (let ((box (om-load-boxcall (quote genfun) "LIST-ELEMENTS 2" (quote list-elements) (quote ((om-load-inputfun (quote input-funbox) "a list" "LIST" nil))) (om-make-point 900 212) nil nil nil nil 2))) (setf (numouts box) 2) box))) (when (fboundp (quote set-active)) (set-active box nil)) box) (let ((box (om-load-boxcall (quote genfun) "ALL>V" (quote t2l::all>v) (quote ((om-load-inputfun (quote input-funbox) "" "XS" nil))) (om-make-point 838 272) nil nil nil nil 1))) (when (fboundp (quote set-active)) (set-active box nil)) box) (let ((box (om-load-boxcall (quote genfun) "ALL<V 2" (quote t2l::all<v) (quote ((om-load-inputfun (quote input-funbox) "" "XS" nil))) (om-make-point 946 273) nil nil nil nil 1))) (when (fboundp (quote set-active)) (set-active box nil)) box) (let ((box (om-load-boxcall (quote genfun) "OMANDV 5" (quote t2l::omandv) (quote ((om-load-inputfun (quote input-funbox) "" "XS" nil) (om-load-inputfun (quote input-funbox) "" "XS" nil))) (om-make-point 15088/19 6241/19) nil nil nil nil 1))) (when (fboundp (quote set-active)) (set-active box nil)) box) (let ((box (om-load-boxcall (quote genfun) "ALL<V" (quote t2l::all<v) (quote ((om-load-inputfun (quote input-funbox) "" "XS" nil))) (om-make-point 776 274) nil nil nil nil 1))) (when (fboundp (quote set-active)) (set-active box nil)) box) (let ((box (let ((box (om-load-boxcall (quote genfun) "LIST-ELEMENTS" (quote list-elements) (quote ((om-load-inputfun (quote input-funbox) "a list" "LIST" nil))) (om-make-point 780 212) nil nil nil nil 2))) (setf (numouts box) 2) box))) (when (fboundp (quote set-active)) (set-active box nil)) box) (let ((box (om-load-boxcall (quote genfun) "MAT-TRANS" (quote mat-trans) (quote ((om-load-inputfun (quote input-funbox) "a list of lists" "MATRIX" nil))) (om-make-point 764 145) nil nil "&" nil 1))) (when (fboundp (quote set-active)) (set-active box nil)) box) (let ((box (om-load-boxcall (quote lispfun) "LIST" (quote list) (quote ((om-load-inputfun (quote input-funbox) "add-input" "add-input" nil) (om-load-inputfun (quote input-funbox) "add-input" "add-input" nil))) (om-make-point 781 95) nil nil nil nil 1))) (when (fboundp (quote set-active)) (set-active box nil)) box) (let ((box (om-load-boxcall (quote lispfun) "CAR 2" (quote car) (quote ((om-load-inputfun (quote input-funbox) "X" "X" nil))) (om-make-point 842 47) nil nil nil nil 1))) (when (fboundp (quote set-active)) (set-active box nil)) box) (let ((box (om-load-boxcall (quote lispfun) "CAR" (quote car) (quote ((om-load-inputfun (quote input-funbox) "X" "X" nil))) (om-make-point 766 47) nil nil nil nil 1))) (when (fboundp (quote set-active)) (set-active box nil)) box) (let ((box (om-load-boxout "output" 0 (om-make-point 4942/19 8920/19) (quote ((om-load-inputfun (quote input-funbox) "" "out" nil))) nil nil))) (when (fboundp (quote set-active)) (set-active box nil)) box) (let ((box (om-load-boxin "input 2" 1 (om-make-point 254 85) "" nil nil nil))) (when (fboundp (quote set-active)) (set-active box nil)) box) (let ((box (om-load-boxin "input" 0 (om-make-point 50 50) "" nil nil nil))) (when (fboundp (quote set-active)) (set-active box nil)) box) (let ((box (om-load-boxcall (quote genfun) "OMANDV 3" (quote t2l::omandv) (quote ((om-load-inputfun (quote input-funbox) "" "XS" nil) (om-load-inputfun (quote input-funbox) "" "XS" nil))) (om-make-point 8248/19 7191/19) nil nil nil nil 1))) (when (fboundp (quote set-active)) (set-active box nil)) box) (let ((box (om-load-boxcall (quote genfun) "OMNOTV 2" (quote t2l::omnotv) (quote ((om-load-inputfun (quote input-funbox) "" "X" nil))) (om-make-point 11934/19 3961/19) nil nil nil nil 1))) (when (fboundp (quote set-active)) (set-active box nil)) box) (let ((box (om-load-boxcall (quote genfun) "OMANDV 2" (quote t2l::omandv) (quote ((om-load-inputfun (quote input-funbox) "" "XS" nil) (om-load-inputfun (quote input-funbox) "" "XS" nil))) (om-make-point 11953/19 2897/19) nil nil nil nil 1))) (when (fboundp (quote set-active)) (set-active box nil)) box) (let ((box (om-load-boxcall (quote lispfun) "CADR 4" (quote cadr) (quote ((om-load-inputfun (quote input-funbox) "X" "X" nil))) (om-make-point 12447/19 883/19) nil nil nil nil 1))) (when (fboundp (quote set-active)) (set-active box nil)) box) (let ((box (om-load-boxcall (quote bastype) "aux 4" (quote t) (quote nil) (om-make-point 13131/19 1168/19) (om-make-point 26 28) 0 "0" nil))) (when (fboundp (quote set-active)) (set-active box nil)) box) (let ((box (om-load-boxcall (quote genfun) "OM=V 4" (quote t2l::om=v) (quote ((om-load-inputfun (quote input-funbox) "" "XS" nil) (om-load-inputfun (quote input-funbox) "" "XS" nil))) (om-make-point 12751/19 1738/19) nil nil nil nil 1))) (when (fboundp (quote set-active)) (set-active box nil)) box) (let ((box (om-load-boxcall (quote lispfun) "CADR 3" (quote cadr) (quote ((om-load-inputfun (quote input-funbox) "X" "X" nil))) (om-make-point 11117/19 883/19) nil nil nil nil 1))) (when (fboundp (quote set-active)) (set-active box nil)) box) (let ((box (om-load-boxcall (quote bastype) "aux 3" (quote t) (quote nil) (om-make-point 11801/19 1168/19) (om-make-point 26 28) 0 "0" nil))) (when (fboundp (quote set-active)) (set-active box nil)) box) (let ((box (om-load-boxcall (quote genfun) "OM=V 3" (quote t2l::om=v) (quote ((om-load-inputfun (quote input-funbox) "" "XS" nil) (om-load-inputfun (quote input-funbox) "" "XS" nil))) (om-make-point 11421/19 1738/19) nil nil nil nil 1))) (when (fboundp (quote set-active)) (set-active box nil)) box) (let ((box (om-load-boxcall (quote genfun) "OMNOTV" (quote t2l::omnotv) (quote ((om-load-inputfun (quote input-funbox) "" "X" nil))) (om-make-point 2681/19 6222/19) nil nil nil nil 1))) (when (fboundp (quote set-active)) (set-active box nil)) box) (let ((box (om-load-boxcall (quote genfun) "OMANDV" (quote t2l::omandv) (quote ((om-load-inputfun (quote input-funbox) "" "XS" nil) (om-load-inputfun (quote input-funbox) "" "XS" nil))) (om-make-point 2700/19 5158/19) nil nil nil nil 1))) (when (fboundp (quote set-active)) (set-active box nil)) box) (let ((box (om-load-boxcall (quote lispfun) "CADR 2" (quote cadr) (quote ((om-load-inputfun (quote input-funbox) "X" "X" nil))) (om-make-point 3194/19 3144/19) nil nil nil nil 1))) (when (fboundp (quote set-active)) (set-active box nil)) box) (let ((box (om-load-boxcall (quote bastype) "aux 2" (quote t) (quote nil) (om-make-point 3878/19 3429/19) (om-make-point 26 28) 7 "7" nil))) (when (fboundp (quote set-active)) (set-active box nil)) box) (let ((box (om-load-boxcall (quote genfun) "OM=V 2" (quote t2l::om=v) (quote ((om-load-inputfun (quote input-funbox) "" "XS" nil) (om-load-inputfun (quote input-funbox) "" "XS" nil))) (om-make-point 3498/19 3999/19) nil nil nil nil 1))) (when (fboundp (quote set-active)) (set-active box nil)) box) (let ((box (om-load-boxcall (quote lispfun) "CADR" (quote cadr) (quote ((om-load-inputfun (quote input-funbox) "X" "X" nil))) (om-make-point 1864/19 3144/19) nil nil nil nil 1))) (when (fboundp (quote set-active)) (set-active box nil)) box) (let ((box (om-load-boxcall (quote bastype) "aux" (quote t) (quote nil) (om-make-point 2548/19 3429/19) (om-make-point 26 28) 7 "7" nil))) (when (fboundp (quote set-active)) (set-active box nil)) box) (let ((box (om-load-boxcall (quote genfun) "OM=V" (quote t2l::om=v) (quote ((om-load-inputfun (quote input-funbox) "" "XS" nil) (om-load-inputfun (quote input-funbox) "" "XS" nil))) (om-make-point 2168/19 3999/19) nil nil nil nil 1))) (when (fboundp (quote set-active)) (set-active box nil)) box))) (quote ((17 0 0 0 nil 0) (6 0 0 1 nil 0) (1 0 0 2 nil 0) (2 0 1 0 nil 0) (5 0 1 1 nil 0) (3 0 2 0 nil 0) (9 0 3 0 nil 0) (8 1 4 0 nil 0) (3 1 5 0 nil 0) (7 0 6 0 nil 0) (4 0 6 1 nil 0) (8 0 7 0 nil 0) (9 0 8 0 nil 0) (10 0 9 0 nil 0) (12 0 10 0 nil 0) (11 0 10 1 nil 0) (14 0 11 0 nil 0) (15 0 12 0 nil 0) (16 0 13 0 nil 0) (25 0 16 0 nil 0) (0 0 16 1 nil 0) (18 0 17 0 nil 0) (24 0 18 0 nil 0) (21 0 18 1 nil 0) (14 0 19 0 nil 0) (19 0 21 0 nil 0) (20 0 21 1 nil 0) (15 0 22 0 nil 0) (22 0 24 0 nil 0) (23 0 24 1 nil 0) (26 0 25 0 nil 0) (32 0 26 0 nil 0) (29 0 26 1 nil 0) (14 0 27 0 nil 0) (27 0 29 0 nil 0) (28 0 29 1 nil 0) (15 0 30 0 nil 0) (30 0 32 0 nil 0) (31 0 32 1 nil 0))) 6.16 nil "" (om-make-point 213 24) (om-make-point 1094 620)) (quote ((om-load-inputfun (quote input-funbox) "" "input" nil) (om-load-inputfun (quote input-funbox) "" "input 2" nil))) (om-make-point 849241/1938 433457/1938) nil nil nil "not parallel"))) (when (fboundp (quote set-active)) (set-active box nil)) box) (let ((box (om-load-boxcall (quote genfun) "OMORV" (quote t2l::omorv) (quote ((om-load-inputfun (quote input-funbox) "" "XS" nil) (om-load-inputfun (quote input-funbox) "" "XS" nil))) (om-make-point 4277/19 6830/19) nil nil nil nil 1))) (when (fboundp (quote set-active)) (set-active box nil)) box))) (quote ((3 0 0 0 nil 0) (2 0 0 1 nil 0) (10 0 1 0 nil 0) (8 0 4 0 nil 0) (7 0 4 1 nil 0) (0 0 5 0 nil 0) (5 0 6 0 nil 0) (9 0 6 1 nil 0) (2 0 7 0 nil 0) (3 0 8 0 nil 0) (3 0 9 0 nil 0) (2 0 9 1 nil 0) (6 1 10 0 nil 0) (9 0 10 1 nil 0))) 6.16 nil "" (om-make-point 200 200) (om-make-point 563 344)) (quote ((om-load-inputfun (quote input-funbox) "" "input" nil) (om-load-inputfun (quote input-funbox) "" "input 2" nil))) (om-make-point 334212/2261 550591/2261) nil nil nil nil))) (when (fboundp (quote set-active)) (set-active box nil)) box) (let ((box (om-load-boxcall (quote bastype) "aux" (quote t) (quote nil) (om-make-point 318 189) (om-make-point 24 28) (quote t) "t" nil))) (when (fboundp (quote set-active)) (set-active box nil)) box) (let ((box (om-load-boxcall (quote lispfun) "EQUAL" (quote equal) (quote ((om-load-inputfun (quote input-funbox) "X" "X" nil) (om-load-inputfun (quote input-funbox) "Y" "Y" nil))) (om-make-point 282 165) nil nil nil nil 1))) (when (fboundp (quote set-active)) (set-active box nil)) box) (let ((box (om-load-boxcall (quote genfun) "OMIF" (quote omif) (quote ((om-load-inputfun (quote input-funbox) "IF" "TEST" nil) (om-load-inputfun (quote input-funbox) "THEN" "ACTION" (quote t)) (om-load-inputfun (quote input-funbox) "ELSE" "ELSE" nil))) (om-make-point 306 219) nil nil nil nil 1))) (when (fboundp (quote set-active)) (set-active box nil)) box) (let ((box (om-load-boxout "output" 0 (om-make-point 0 429) (quote ((om-load-inputfun (quote input-funbox) "" "out" nil))) nil nil))) (when (fboundp (quote set-active)) (set-active box nil)) box) (let ((box (om-load-boxin "input 2" 1 (om-make-point 324 25) "" nil (list (list 60 67) 7) nil))) (when (fboundp (quote set-active)) (set-active box nil)) box) (let ((box (om-load-boxin "input" 0 (om-make-point 5 45) "" "input" (list (list 60 67) 7) nil))) (when (fboundp (quote set-active)) (set-active box nil)) box))) (quote ((7 0 0 0 nil 0) (8 0 1 0 nil 0) (8 0 2 0 nil 0) (7 0 2 1 nil 0) (1 0 4 0 nil 0) (0 0 4 1 nil 0) (4 0 5 0 nil 0) (3 0 5 1 nil 0) (2 0 5 2 nil 0) (5 0 6 0 nil 0))) 6.16 nil "" (om-make-point 573 96) (om-make-point 646 389)) (quote ((om-load-inputfun (quote input-funbox) "" "input" nil) (om-load-inputfun (quote input-funbox) "" "input 2" nil))) (om-make-point 23 115) nil (list nil) "l" nil))) (when (fboundp (quote set-active)) (set-active box nil)) box) (let ((box (om-load-boxout "output" 0 (om-make-point 5 260) (quote ((om-load-inputfun (quote input-funbox) "" "out" nil))) nil nil))) (when (fboundp (quote set-active)) (set-active box nil)) box) (let ((box (om-load-boxin "input 2" 1 (om-make-point 55 45) "" nil nil nil))) (when (fboundp (quote set-active)) (set-active box nil)) box) (let ((box (om-load-boxin "input" 0 (om-make-point 5 45) "" nil (list (list 60 64) 4) nil))) (when (fboundp (quote set-active)) (set-active box nil)) box))) (quote ((1 0 0 0 nil 0) (3 0 0 1 nil 0) (4 0 1 0 nil 0) (0 0 2 0 nil 0))) 6.16 nil "" (om-make-point 660 84) (om-make-point 400 297)) (quote ((om-load-inputfun (quote input-funbox) "" "input" nil) (om-load-inputfun (quote input-funbox) "" "input 2" nil))) (om-make-point 161 287) nil nil "l" nil))) (when (fboundp (quote set-active)) (set-active box nil)) box) (let ((box (let ((box (om-load-boxcall (quote genfun) "LIST-ELEMENTS" (quote list-elements) (quote ((om-load-inputfun (quote input-funbox) "a list" "LIST" nil))) (om-make-point 142 129) nil nil nil nil 2))) (setf (numouts box) 2) box))) (when (fboundp (quote set-active)) (set-active box nil)) box) (let ((box (om-load-boxout "output" 0 (om-make-point 5 440) (quote ((om-load-inputfun (quote input-funbox) "" "out" nil))) nil nil))) (when (fboundp (quote set-active)) (set-active box nil)) box) (let ((box (om-load-boxin "chords" 0 (om-make-point 5 45) "" "chords" (list (list 60 64 67 72) (list 60 65 67 72)) nil))) (when (fboundp (quote set-active)) (set-active box nil)) box))) (quote ((0 0 1 0 nil 0) (6 1 2 0 nil 0) (6 0 3 0 nil 0) (5 0 4 0 nil 0) (3 0 4 1 nil 0) (2 0 5 1 nil 0) (8 0 6 0 nil 0) (4 0 7 0 nil 0))) 6.16 nil "" (om-make-point 552 165) (om-make-point 508 499)) (quote ((om-load-inputfun (quote input-funbox) "" "input" nil))) (om-make-point 71 70) nil nil nil "compare"))) (when (fboundp (quote set-active)) (set-active box nil)) box) (let ((box (om-load-boxcall (quote bastype) "aux" (quote t) (quote nil) (om-make-point 153 138) (om-make-point 26 28) (quote t) "T" nil))) (when (fboundp (quote set-active)) (set-active box nil)) box) (let ((box (om-load-boxcall (quote lispfun) "CDR" (quote cdr) (quote ((om-load-inputfun (quote input-funbox) "X" "X" nil))) (om-make-point 35 121) nil nil nil nil 1))) (when (fboundp (quote set-active)) (set-active box nil)) box) (let ((box (om-load-boxcall (quote genfun) "OMIF" (quote omif) (quote ((om-load-inputfun (quote input-funbox) "IF" "TEST" nil) (om-load-inputfun (quote input-funbox) "THEN" "ACTION" nil) (om-load-inputfun (quote input-funbox) "ELSE" "ELSE" nil))) (om-make-point 133 168) nil nil nil nil 1))) (when (fboundp (quote set-active)) (set-active box nil)) box) (let ((box (om-load-boxout "output" 0 (om-make-point 5 240) (quote ((om-load-inputfun (quote input-funbox) "" "out" nil))) nil nil))) (when (fboundp (quote set-active)) (set-active box nil)) box) (let ((box (om-load-boxin "chords" 0 (om-make-point 5 45) "" "chords" nil nil))) (when (fboundp (quote set-active)) (set-active box nil)) box))) (quote ((5 0 0 0 nil 0) (5 0 2 0 nil 0) (2 0 3 0 nil 0) (0 0 3 1 nil 0) (1 0 3 2 nil 0) (3 0 4 0 nil 0))) 6.16 nil "" (om-make-point 200 200) (om-make-point 400 180)) (quote ((om-load-inputfun (quote input-funbox) "" "input" nil))) (om-make-point 36 141) nil nil "l" nil))) (when (fboundp (quote set-active)) (set-active box nil)) box) (let ((box (om-load-boxcall (quote genfun) "MAPLIST-ANDV" (quote t2l::maplist-andv) (quote ((om-load-inputfun (quote input-funbox) "" "FN" nil) (om-load-inputfun (quote input-funbox) "" "LIST" nil))) (om-make-point 57 212) nil nil nil nil 1))) (when (fboundp (quote set-active)) (set-active box nil)) box) (let ((box (om-load-boxcall (quote genfun) "MAT-TRANS" (quote mat-trans) (quote ((om-load-inputfun (quote input-funbox) "a list of lists" "MATRIX" nil))) (om-make-point 102 149) nil nil "&" nil 1))) (when (fboundp (quote set-active)) (set-active box nil)) box) (let ((box (om-load-boxcall (quote lispfun) "FLATTEN-SEQC" (quote t2l::flatten-seqc) (quote ((om-load-inputfun (quote input-funbox) "LIST" "LIST" nil))) (om-make-point 98 104) nil nil nil nil 1))) (when (fboundp (quote set-active)) (set-active box nil)) box) (let ((box (om-load-boxout "output" 0 (om-make-point 0 305) (quote ((om-load-inputfun (quote input-funbox) "" "out" nil))) nil nil))) (when (fboundp (quote set-active)) (set-active box nil)) box) (let ((box (om-load-boxin "sequence" 0 (om-make-point 0 34) "" "sequence" (list (list 48 50 43 48 48) (list 55 55 55 55) (list 60 59 59 60) (list 64 62 62 64)) nil))) (when (fboundp (quote set-active)) (set-active box nil)) box))) (quote ((4 0 0 0 nil 0) (1 0 0 1 nil 0) (2 0 1 0 nil 0) (5 0 1 1 nil 0) (3 0 4 0 nil 0) (5 0 4 1 nil 0) (6 0 5 0 nil 0) (8 0 6 0 nil 0) (4 0 7 0 nil 0))) nil 6.16))
