; OM File Header - Saved 2022/11/20 3:35:49
; (6.16 :patc (om-make-point 24 24) (om-make-point 631 59) (om-make-point 500 360) "" 183 0 nil "2022/11/20 3:35:49")
; End File Header
(in-package :om)(load-lib-for (quote ("myextension")))(setf *om-current-persistent* (om-load-patch1 "intervalswithinch" (quote ((let ((box (om-load-boxcall (quote lispfun) "MAPCAR" (quote mapcar) (quote ((om-load-inputfun (quote input-funbox) "FUNCTION" "FUNCTION" nil) (om-load-inputfun (quote input-funbox) "LIST" "LIST" nil) (om-load-inputfun (quote input-funbox) "add-input" "add-input" nil))) (om-make-point 139 351) nil nil nil nil 1))) (when (fboundp (quote set-active)) (set-active box nil)) box) (let ((box (om-load-boxcall (quote lispfun) "LIST" (quote list) (quote ((om-load-inputfun (quote input-funbox) "add-input" "add-input" nil) (om-load-inputfun (quote input-funbox) "add-input" "add-input" nil))) (om-make-point 127 296) nil nil "l" nil 1))) (when (fboundp (quote set-active)) (set-active box nil)) box) (let ((box (om-load-boxcall (quote abstraction) "om-%12" (om-load-patch-abs1 "om-%12" (quote ((let ((box (om-load-boxout "output" 0 (om-make-point 50 331) (quote ((om-load-inputfun (quote input-funbox) "" "out" nil))) nil nil))) (when (fboundp (quote set-active)) (set-active box nil)) box) (let ((box (om-load-boxin "input" 0 (om-make-point 212 50) "" nil nil nil))) (when (fboundp (quote set-active)) (set-active box nil)) box) (let ((box (om-load-boxcall (quote lispfun) "MAPCAR" (quote mapcar) (quote ((om-load-inputfun (quote input-funbox) "FUNCTION" "FUNCTION" nil) (om-load-inputfun (quote input-funbox) "LIST" "LIST" nil) (om-load-inputfun (quote input-funbox) "add-input" "add-input" nil))) (om-make-point 207 188) nil nil nil nil 1))) (when (fboundp (quote set-active)) (set-active box nil)) box) (let ((box (om-load-boxcall (quote genfun) "OM-V" (quote t2l::om-v) (quote ((om-load-inputfun (quote input-funbox) "" "X" nil) (om-load-inputfun (quote input-funbox) "" "XS" nil))) (om-make-point 177 129) nil nil "l" nil 1))) (when (fboundp (quote set-active)) (set-active box nil)) box) (let ((box (let ((box (om-load-boxcall (quote genfun) "LIST-ELEMENTS" (quote list-elements) (quote ((om-load-inputfun (quote input-funbox) "a list" "LIST" nil))) (om-make-point 210 121) nil nil nil nil 2))) (setf (numouts box) 2) box))) (when (fboundp (quote set-active)) (set-active box nil)) box) (let ((box (om-load-boxcall (quote lispfun) "ABSV" (quote t2l::absv) (quote ((om-load-inputfun (quote input-funbox) "K" "K" nil))) (om-make-point 169 188) nil nil "l" nil 1))) (when (fboundp (quote set-active)) (set-active box nil)) box) (let ((box (om-load-boxcall (quote lispfun) "MAPCAR 2" (quote mapcar) (quote ((om-load-inputfun (quote input-funbox) "FUNCTION" "FUNCTION" nil) (om-load-inputfun (quote input-funbox) "LIST" "LIST" nil))) (om-make-point 184 233) nil nil nil nil 1))) (when (fboundp (quote set-active)) (set-active box nil)) box) (let ((box (om-load-boxcall (quote genfun) "OM%V" (quote t2l::om%v) (quote ((om-load-inputfun (quote input-funbox) "" "N" nil) (om-load-inputfun (quote input-funbox) "" "D" nil))) (om-make-point 107 221) nil nil "l" nil 1))) (when (fboundp (quote set-active)) (set-active box nil)) box) (let ((box (om-load-boxcall (quote bastype) "aux" (quote t) (quote nil) (om-make-point 129 191) (om-make-point 32 28) 12 "12" nil))) (when (fboundp (quote set-active)) (set-active box nil)) box) (let ((box (om-load-boxcall (quote lispfun) "MAPCAR 3" (quote mapcar) (quote ((om-load-inputfun (quote input-funbox) "FUNCTION" "FUNCTION" nil) (om-load-inputfun (quote input-funbox) "LIST" "LIST" nil))) (om-make-point 125 278) nil nil nil nil 1))) (when (fboundp (quote set-active)) (set-active box nil)) box))) (quote ((9 0 0 0 nil 0) (3 0 2 0 nil 0) (4 0 2 1 nil 0) (4 1 2 2 nil 0) (1 0 4 0 nil 0) (5 0 6 0 nil 0) (2 0 6 1 nil 0) (8 0 7 1 nil 0) (7 0 9 0 nil 0) (6 0 9 1 nil 0))) 6.16 nil "" (om-make-point 737 132) (om-make-point 500 360)) (quote ((om-load-inputfun (quote input-funbox) "" "input" nil))) (om-make-point 507/2 1805/8) nil (list (list nil nil nil nil nil nil)) nil "om-%12"))) (when (fboundp (quote set-active)) (set-active box nil)) box) (let ((box (om-load-boxcall (quote genfun) "HAS-NULL-VALUES" (quote t2l::has-null-values) (quote ((om-load-inputfun (quote input-funbox) "" "LIST" nil))) (om-make-point 245 29) nil nil "l" nil 1))) (when (fboundp (quote set-active)) (set-active box nil)) box) (let ((box (om-load-boxcall (quote lispfun) "REMOVE-IF" (quote remove-if) (quote ((om-load-inputfun (quote input-funbox) "PREDICATE" "PREDICATE" nil) (om-load-inputfun (quote input-funbox) "SEQUENCE" "SEQUENCE" nil))) (om-make-point 286 94) nil nil nil nil 1))) (when (fboundp (quote set-active)) (set-active box nil)) box) (let ((box (om-load-boxcall (quote genfun) "MAT-TRANS" (quote mat-trans) (quote ((om-load-inputfun (quote input-funbox) "a list of lists" "MATRIX" nil))) (om-make-point 254 152) nil nil nil nil 1))) (when (fboundp (quote set-active)) (set-active box nil)) box) (let ((box (om-load-boxcall (quote lispfun) "COMBINATIONS-OF2" (quote t2l::combinations-of2) (quote ((om-load-inputfun (quote input-funbox) "XS" "XS" nil))) (om-make-point 329 42) nil nil nil nil 1))) (when (fboundp (quote set-active)) (set-active box nil)) box) (let ((box (om-load-boxout "output" 0 (om-make-point 15 413) (quote ((om-load-inputfun (quote input-funbox) "" "out" nil))) nil nil))) (when (fboundp (quote set-active)) (set-active box nil)) box) (let ((box (om-load-boxin "chord" 0 (om-make-point 5 15) "" "chord" (list 0 4 7 10) nil))) (when (fboundp (quote set-active)) (set-active box nil)) box))) (quote ((1 0 0 0 nil 0) (4 0 0 1 nil 0) (2 0 0 2 nil 0) (5 0 2 0 nil 0) (3 0 4 0 nil 0) (6 0 4 1 nil 0) (4 0 5 0 nil 0) (8 0 6 0 nil 0) (0 0 7 0 nil 0))) nil 6.16))
