; OM File Header - Saved 2022/12/27 22:20:50
; (6.16 :patc (om-make-point 857.0 70) (om-make-point 634 41) (om-make-point 582 580) "" 183 0 nil "2022/12/27 22:20:50")
; End File Header
; External resources 
; (list (list (quote :abstraction) "#P\"C:../is dissonant.omp\"" "#P\"C:../is open.omp\""))
(in-package :om)(load-lib-for (quote ("myextension")))(setf *om-current-persistent* (om-load-patch1 "1to1-motion" (quote ((let ((box (om-load-boxcall (quote genfun) "HAS-NULL-VALUES" (quote has-null-values) (quote ((om-load-inputfun (quote input-funbox) "" "LIST" nil))) (om-make-point 52 197) nil nil nil nil 1))) (when (fboundp (quote set-active)) (set-active box nil)) box) (let ((box (om-load-boxcall (quote bastype) "aux" (quote t) (quote nil) (om-make-point 92 308) (om-make-point 24 28) (quote t) "t" nil))) (when (fboundp (quote set-active)) (set-active box nil)) box) (let ((box (om-load-boxcall (quote abstraction) "second chord not dissonant with non similar motion to open intervals" (om-load-patch-abs1 "second chord not dissonant with non similar motion to open intervals" (quote ((let ((box (om-load-boxcall (quote genfun) "?NOT" (quote ?not) (quote ((om-load-inputfun (quote input-funbox) "" "X" nil))) (om-make-point 322 439) nil nil nil nil 1))) (when (fboundp (quote set-active)) (set-active box nil)) box) (let ((box (om-load-boxcall (quote genfun) "?AND 4" (quote ?and) (quote ((om-load-inputfun (quote input-funbox) "" "XS" nil) (om-load-inputfun (quote input-funbox) "" "XS" nil))) (om-make-point 332 499) nil nil nil nil 1))) (when (fboundp (quote set-active)) (set-active box nil)) box) (let ((box (om-load-boxcall (quote genfun) "?OR 2" (quote ?or) (quote ((om-load-inputfun (quote input-funbox) "" "XS" nil) (om-load-inputfun (quote input-funbox) "" "XS" nil))) (om-make-point 433 503) nil nil nil nil 1))) (when (fboundp (quote set-active)) (set-active box nil)) box) (let ((box (om-load-boxcall (quote genfun) "?NOT" (quote ?not) (quote ((om-load-inputfun (quote input-funbox) "" "X" nil))) (om-make-point 410 438) nil nil nil nil 1))) (when (fboundp (quote set-active)) (set-active box nil)) box) (let ((box (om-load-boxcall (quote genfun) "?AND 3" (quote ?and) (quote ((om-load-inputfun (quote input-funbox) "" "XS" nil) (om-load-inputfun (quote input-funbox) "" "XS" nil))) (om-make-point 492 455) nil nil nil nil 1))) (when (fboundp (quote set-active)) (set-active box nil)) box) (let ((box (om-load-boxcall (quote genfun) "?OR" (quote ?or) (quote ((om-load-inputfun (quote input-funbox) "" "XS" nil) (om-load-inputfun (quote input-funbox) "" "XS" nil))) (om-make-point 598 361) nil nil nil nil 1))) (when (fboundp (quote set-active)) (set-active box nil)) box) (let ((box (om-load-boxcall (quote genfun) "?AND 2" (quote ?and) (quote ((om-load-inputfun (quote input-funbox) "" "XS" nil) (om-load-inputfun (quote input-funbox) "" "XS" nil))) (om-make-point 756 296) nil nil nil nil 1))) (when (fboundp (quote set-active)) (set-active box nil)) box) (let ((box (om-load-boxcall (quote genfun) "?ALL>= 2" (quote ?all>=) (quote ((om-load-inputfun (quote input-funbox) "" "XS" nil))) (om-make-point 701 239) nil nil nil nil 1))) (when (fboundp (quote set-active)) (set-active box nil)) box) (let ((box (om-load-boxcall (quote genfun) "?ALL<= 2" (quote ?all<=) (quote ((om-load-inputfun (quote input-funbox) "" "XS" nil))) (om-make-point 813 238) nil nil nil nil 1))) (when (fboundp (quote set-active)) (set-active box nil)) box) (let ((box (om-load-boxcall (quote genfun) "?AND" (quote ?and) (quote ((om-load-inputfun (quote input-funbox) "" "XS" nil) (om-load-inputfun (quote input-funbox) "" "XS" nil))) (om-make-point 522 280) nil nil nil nil 1))) (when (fboundp (quote set-active)) (set-active box nil)) box) (let ((box (om-load-boxcall (quote genfun) "?ALL>=" (quote ?all>=) (quote ((om-load-inputfun (quote input-funbox) "" "XS" nil))) (om-make-point 600 220) nil nil nil nil 1))) (when (fboundp (quote set-active)) (set-active box nil)) box) (let ((box (om-load-boxcall (quote genfun) "?ALL<=" (quote ?all<=) (quote ((om-load-inputfun (quote input-funbox) "" "XS" nil))) (om-make-point 471 226) nil nil nil nil 1))) (when (fboundp (quote set-active)) (set-active box nil)) box) (let ((box (om-load-boxout "output" 0 (om-make-point 235 562) (quote ((om-load-inputfun (quote input-funbox) "" "out" nil))) nil nil))) (when (fboundp (quote set-active)) (set-active box nil)) box) (let ((box (om-load-boxin "input" 0 (om-make-point 50 50) "" nil nil nil))) (when (fboundp (quote set-active)) (set-active box nil)) box) (let ((box (om-load-boxcall (quote patch-box) "is dissonant" (quote ("elements" "paradigms" "myparadigm 3" "is dissonant")) (quote ((om-load-inputfun (quote input-funbox) "" "x" nil) (om-load-inputfun (quote input-funbox) "" "y" nil))) (om-make-point 287 360) nil nil nil nil 1))) (when (fboundp (quote set-active)) (set-active box nil)) box) (let ((box (let ((box (om-load-boxcall (quote genfun) "LIST-ELEMENTS" (quote list-elements) (quote ((om-load-inputfun (quote input-funbox) "a list" "LIST" nil))) (om-make-point 269 235) nil nil nil nil 2))) (setf (numouts box) 2) box))) (when (fboundp (quote set-active)) (set-active box nil)) box) (let ((box (let ((box (om-load-boxcall (quote genfun) "LIST-ELEMENTS 2" (quote list-elements) (quote ((om-load-inputfun (quote input-funbox) "a list" "LIST" nil))) (om-make-point 296 296) nil nil nil nil 2))) (setf (numouts box) 2) box))) (when (fboundp (quote set-active)) (set-active box nil)) box) (let ((box (let ((box (om-load-boxcall (quote genfun) "LIST-ELEMENTS 4" (quote list-elements) (quote ((om-load-inputfun (quote input-funbox) "a list" "LIST" nil))) (om-make-point 426 296) nil nil nil nil 2))) (setf (numouts box) 2) box))) (when (fboundp (quote set-active)) (set-active box nil)) box) (let ((box (om-load-boxcomment "comment" (om-make-point 113 33) (quote "((x1 x2) (y1 y2))") "" (om-make-point 601 145) nil (om-make-color 0 0 0) (om-make-font "Verdana" 12 :family "Verdana" :style (quote (:plain)) :mode (quote nil))))) (when (fboundp (quote set-active)) (set-active box nil)) box) (let ((box (let ((box (om-load-boxcall (quote genfun) "LIST-ELEMENTS 5" (quote list-elements) (quote ((om-load-inputfun (quote input-funbox) "a list" "LIST" nil))) (om-make-point 540 153) nil nil nil nil 2))) (setf (numouts box) 2) box))) (when (fboundp (quote set-active)) (set-active box nil)) box) (let ((box (let ((box (om-load-boxcall (quote genfun) "LIST-ELEMENTS 6" (quote list-elements) (quote ((om-load-inputfun (quote input-funbox) "a list" "LIST" nil))) (om-make-point 700 153) nil nil nil nil 2))) (setf (numouts box) 2) box))) (when (fboundp (quote set-active)) (set-active box nil)) box) (let ((box (om-load-boxcall (quote patch-box) "is open" (quote ("elements" "paradigms" "myparadigm 3" "is open")) (quote ((om-load-inputfun (quote input-funbox) "" "x" nil) (om-load-inputfun (quote input-funbox) "" "y" nil))) (om-make-point 436 359) nil nil "&" nil 1))) (when (fboundp (quote set-active)) (set-active box nil)) box) (let ((box (om-load-boxcall (quote genfun) "MAT-TRANS" (quote mat-trans) (quote ((om-load-inputfun (quote input-funbox) "a list of lists" "MATRIX" nil))) (om-make-point 279 153) nil nil nil nil 1))) (when (fboundp (quote set-active)) (set-active box nil)) box))) (quote ((14 0 0 0 nil 0) (0 0 1 0 nil 0) (2 0 1 1 nil 0) (3 0 2 0 nil 0) (4 0 2 1 nil 0) (21 0 3 0 nil 0) (21 0 4 0 nil 0) (5 0 4 1 nil 0) (9 0 5 0 nil 0) (6 0 5 1 nil 0) (7 0 6 0 nil 0) (8 0 6 1 nil 0) (20 0 7 0 nil 0) (20 1 8 0 nil 0) (11 0 9 0 nil 0) (10 0 9 1 nil 0) (19 1 10 0 nil 0) (19 0 11 0 nil 0) (1 0 12 0 nil 0) (16 0 14 0 nil 0) (16 1 14 1 nil 0) (22 0 15 0 nil 0) (15 1 16 0 nil 0) (15 1 17 0 nil 0) (13 0 19 0 nil 0) (13 0 20 0 nil 0) (17 0 21 0 nil 0) (17 1 21 1 nil 0) (13 0 22 0 nil 0))) 6.16 nil "" (om-make-point 348 0) (om-make-point 868 660)) (quote ((om-load-inputfun (quote input-funbox) "" "input" nil))) (om-make-point 3713/21 4432/21) nil nil nil "second chord not dissonant with non similar motion to open intervals"))) (when (fboundp (quote set-active)) (set-active box nil)) box) (let ((box (om-load-boxcall (quote genfun) "OMIF" (quote omif) (quote ((om-load-inputfun (quote input-funbox) "IF" "TEST" nil) (om-load-inputfun (quote input-funbox) "THEN" "ACTION" nil) (om-load-inputfun (quote input-funbox) "ELSE" "ELSE" nil))) (om-make-point 72 338) nil nil nil nil 1))) (when (fboundp (quote set-active)) (set-active box nil)) box) (let ((box (om-load-boxcall (quote lispfun) "NOT" (quote not) (quote ((om-load-inputfun (quote input-funbox) "X" "X" nil))) (om-make-point 47 272) nil nil nil nil 1))) (when (fboundp (quote set-active)) (set-active box nil)) box) (let ((box (om-load-boxcall (quote genfun) "FIRST-N" (quote first-n) (quote ((om-load-inputfun (quote input-funbox) "a list" "LIST" nil) (om-load-inputfun (quote input-funbox) "number of elements" "N" 0))) (om-make-point 252 1167) nil nil nil nil 1))) (when (fboundp (quote set-active)) (set-active box nil)) box) (let ((box (om-load-boxout "output" 0 (om-make-point 15 416) (quote ((om-load-inputfun (quote input-funbox) "" "out" nil))) nil nil))) (when (fboundp (quote set-active)) (set-active box nil)) box) (let ((box (om-load-boxin "input" 0 (om-make-point 76 36) "" "input" (list (list (quote x1) (quote y1)) (list (quote x2) (quote y2)) (list (quote x2) (quote y3))) nil))) (when (fboundp (quote set-active)) (set-active box nil)) box))) (quote ((7 0 0 0 nil 0) (7 0 2 0 nil 0) (4 0 3 0 nil 0) (2 0 3 1 nil 0) (1 0 3 2 nil 0) (0 0 4 0 nil 0) (3 0 6 0 nil 0))) nil 6.16))
