; OM File Header - Saved 2022/12/27 22:20:49
; (6.16 :patc (om-make-point 872.0 10) (om-make-point 50 50) (om-make-point 516 387) "" 183 0 "2022/11/04 13:02:11" "2022/12/27 22:19:45")
; End File Header
(in-package :om)(load-lib-for (quote ("myextension")))(setf *om-current-persistent* (om-load-patch1 "is 1to1" (quote ((let ((box (om-load-boxcall (quote abstraction) "mypatch 2" (om-load-patch-abs1 "mypatch 2" (quote ((let ((box (om-load-boxout "output" 0 (om-make-point 171 389) (quote ((om-load-inputfun (quote input-funbox) "" "out" nil))) nil nil))) (when (fboundp (quote set-active)) (set-active box nil)) box) (let ((box (om-load-boxin "input" 0 (om-make-point 50 50) "" nil nil nil))) (when (fboundp (quote set-active)) (set-active box nil)) box) (let ((box (let ((box (om-load-boxcall (quote genfun) "LIST-ELEMENTS" (quote list-elements) (quote ((om-load-inputfun (quote input-funbox) "a list" "LIST" nil))) (om-make-point 297 119) nil nil nil nil 2))) (setf (numouts box) 2) box))) (when (fboundp (quote set-active)) (set-active box nil)) box) (let ((box (om-load-boxcall (quote genfun) "OMAND" (quote omand) (quote ((om-load-inputfun (quote input-funbox) "something" "SELF" nil) (om-load-inputfun (quote input-funbox) "other things" "REST" nil))) (om-make-point 301 262) nil nil nil nil 1))) (when (fboundp (quote set-active)) (set-active box nil)) box) (let ((box (om-load-boxcall (quote abstraction) "different variables" (om-load-patch-abs1 "different variables" (quote ((let ((box (om-load-boxout "output" 0 (om-make-point 99 273) (quote ((om-load-inputfun (quote input-funbox) "" "out" nil))) nil nil))) (when (fboundp (quote set-active)) (set-active box nil)) box) (let ((box (om-load-boxin "input" 0 (om-make-point 95 50) "" nil nil nil))) (when (fboundp (quote set-active)) (set-active box nil)) box) (let ((box (let ((box (om-load-boxcall (quote genfun) "LIST-ELEMENTS 2" (quote list-elements) (quote ((om-load-inputfun (quote input-funbox) "a list" "LIST" nil))) (om-make-point 50 118) nil nil nil nil 2))) (setf (numouts box) 2) box))) (when (fboundp (quote set-active)) (set-active box nil)) box) (let ((box (om-load-boxcall (quote lispfun) "EQUAL" (quote equal) (quote ((om-load-inputfun (quote input-funbox) "X" "X" nil) (om-load-inputfun (quote input-funbox) "Y" "Y" nil))) (om-make-point 66 180) nil nil nil nil 1))) (when (fboundp (quote set-active)) (set-active box nil)) box) (let ((box (om-load-boxcall (quote lispfun) "NOT" (quote not) (quote ((om-load-inputfun (quote input-funbox) "X" "X" nil))) (om-make-point 69 226) nil nil nil nil 1))) (when (fboundp (quote set-active)) (set-active box nil)) box))) (quote ((4 0 0 0 nil 0) (1 0 2 0 nil 0) (2 0 3 0 nil 0) (2 1 3 1 nil 0) (3 0 4 0 nil 0))) 6.16 nil "" (om-make-point 200 200) (om-make-point 500 400)) (quote ((om-load-inputfun (quote input-funbox) "" "input" nil))) (om-make-point 701/3 551/3) nil nil nil "different variables"))) (when (fboundp (quote set-active)) (set-active box nil)) box) (let ((box (om-load-boxcall (quote abstraction) "different variables" (om-load-patch-abs1 "different variables" (quote ((let ((box (om-load-boxout "output" 0 (om-make-point 54 273) (quote ((om-load-inputfun (quote input-funbox) "" "out" nil))) nil nil))) (when (fboundp (quote set-active)) (set-active box nil)) box) (let ((box (om-load-boxin "input" 0 (om-make-point 50 50) "" nil nil nil))) (when (fboundp (quote set-active)) (set-active box nil)) box) (let ((box (let ((box (om-load-boxcall (quote genfun) "LIST-ELEMENTS 3" (quote list-elements) (quote ((om-load-inputfun (quote input-funbox) "a list" "LIST" nil))) (om-make-point 52 118) nil nil nil nil 2))) (setf (numouts box) 2) box))) (when (fboundp (quote set-active)) (set-active box nil)) box) (let ((box (om-load-boxcall (quote lispfun) "EQUAL 2" (quote equal) (quote ((om-load-inputfun (quote input-funbox) "X" "X" nil) (om-load-inputfun (quote input-funbox) "Y" "Y" nil))) (om-make-point 68 180) nil nil nil nil 1))) (when (fboundp (quote set-active)) (set-active box nil)) box) (let ((box (om-load-boxcall (quote lispfun) "NOT 2" (quote not) (quote ((om-load-inputfun (quote input-funbox) "X" "X" nil))) (om-make-point 71 226) nil nil nil nil 1))) (when (fboundp (quote set-active)) (set-active box nil)) box))) (quote ((4 0 0 0 nil 0) (1 0 2 0 nil 0) (2 0 3 0 nil 0) (2 1 3 1 nil 0) (3 0 4 0 nil 0))) 6.16 nil "" (om-make-point 200 200) (om-make-point 500 400)) (quote ((om-load-inputfun (quote input-funbox) "" "input" nil))) (om-make-point 1007/3 551/3) nil nil nil "different variables"))) (when (fboundp (quote set-active)) (set-active box nil)) box))) (quote ((3 0 0 0 nil 0) (1 0 2 0 nil 0) (4 0 3 0 nil 0) (5 0 3 1 nil 0) (2 0 4 0 nil 0) (2 1 5 0 nil 0))) 6.16 nil "" (om-make-point 587 155) (om-make-point 461 494)) (quote ((om-load-inputfun (quote input-funbox) "" "input" nil))) (om-make-point 1583/6 2185/12) nil nil nil nil))) (when (fboundp (quote set-active)) (set-active box nil)) box) (let ((box (om-load-boxcall (quote abstraction) "mypatch" (om-load-patch-abs1 "mypatch" (quote ((let ((box (om-load-boxout "output" 0 (om-make-point 150 389) (quote ((om-load-inputfun (quote input-funbox) "" "out" nil))) nil nil))) (when (fboundp (quote set-active)) (set-active box nil)) box) (let ((box (om-load-boxin "input" 0 (om-make-point 64 50) "" nil nil nil))) (when (fboundp (quote set-active)) (set-active box nil)) box) (let ((box (om-load-boxcall (quote genfun) "MAT-TRANS" (quote mat-trans) (quote ((om-load-inputfun (quote input-funbox) "a list of lists" "MATRIX" nil))) (om-make-point 50 170) nil nil nil nil 1))) (when (fboundp (quote set-active)) (set-active box nil)) box) (let ((box (om-load-boxcall (quote genfun) "OM=" (quote om=) (quote ((om-load-inputfun (quote input-funbox) "a number" "A" 0) (om-load-inputfun (quote input-funbox) "a number" "B" 0))) (om-make-point 93 286) nil nil nil nil 1))) (when (fboundp (quote set-active)) (set-active box nil)) box) (let ((box (om-load-boxcall (quote lispfun) "LENGTH" (quote length) (quote ((om-load-inputfun (quote input-funbox) "SEQUENCE" "SEQUENCE" nil))) (om-make-point 56 232) nil nil nil nil 1))) (when (fboundp (quote set-active)) (set-active box nil)) box) (let ((box (om-load-boxcall (quote bastype) "aux 2" (quote t) (quote nil) (om-make-point 103 256) (om-make-point 26 28) 2 "2" nil))) (when (fboundp (quote set-active)) (set-active box nil)) box) (let ((box (om-load-boxcall (quote lispfun) "NOT" (quote not) (quote ((om-load-inputfun (quote input-funbox) "X" "X" nil))) (om-make-point 164 280) nil nil nil nil 1))) (when (fboundp (quote set-active)) (set-active box nil)) box) (let ((box (om-load-boxcall (quote genfun) "OMAND 2" (quote omand) (quote ((om-load-inputfun (quote input-funbox) "something" "SELF" nil) (om-load-inputfun (quote input-funbox) "other things" "REST" nil))) (om-make-point 118 333) nil nil nil nil 1))) (when (fboundp (quote set-active)) (set-active box nil)) box) (let ((box (om-load-boxcall (quote genfun) "HAS-NULL-VALUES" (quote has-null-values) (quote ((om-load-inputfun (quote input-funbox) "" "LIST" nil))) (om-make-point 151 173) nil nil nil nil 1))) (when (fboundp (quote set-active)) (set-active box nil)) box))) (quote ((7 0 0 0 nil 0) (1 0 2 0 nil 0) (4 0 3 0 nil 0) (5 0 3 1 nil 0) (2 0 4 0 nil 0) (8 0 6 0 nil 0) (3 0 7 0 nil 0) (6 0 7 1 nil 0) (1 0 8 0 nil 0))) 6.16 nil "" (om-make-point 200 200) (om-make-point 289 514)) (quote ((om-load-inputfun (quote input-funbox) "" "input" nil))) (om-make-point 63 1695/7) nil nil nil nil))) (when (fboundp (quote set-active)) (set-active box nil)) box) (let ((box (om-load-boxcall (quote bastype) "aux" (quote t) (quote nil) (om-make-point 128 354) (om-make-point 31 28) nil "nil" nil))) (when (fboundp (quote set-active)) (set-active box nil)) box) (let ((box (om-load-boxcall (quote genfun) "OMIF" (quote omif) (quote ((om-load-inputfun (quote input-funbox) "IF" "TEST" nil) (om-load-inputfun (quote input-funbox) "THEN" "ACTION" nil) (om-load-inputfun (quote input-funbox) "ELSE" "ELSE" nil))) (om-make-point 108 384) nil nil nil nil 1))) (when (fboundp (quote set-active)) (set-active box nil)) box) (let ((box (om-load-boxout "output" 0 (om-make-point 9 453) (quote ((om-load-inputfun (quote input-funbox) "" "out" nil))) nil nil))) (when (fboundp (quote set-active)) (set-active box nil)) box) (let ((box (om-load-boxin "input" 0 (om-make-point 22 45) "" nil (list (list 69 62) (list 72 74)) nil))) (when (fboundp (quote set-active)) (set-active box nil)) box) (let ((box (om-load-boxcomment "comment" (om-make-point 176 48) (quote "((x1 x2 ...) (y1 y2 ...))") "" (om-make-point 283 16) nil (om-make-color 0 0 0) (om-make-font "Verdana" 12 :family "Verdana" :style (quote (:plain)) :mode (quote nil))))) (when (fboundp (quote set-active)) (set-active box nil)) box))) (quote ((5 0 0 0 nil 0) (5 0 1 0 nil 0) (1 0 3 0 nil 0) (0 0 3 1 nil 0) (2 0 3 2 nil 0) (3 0 4 0 nil 0))) nil 6.16))
