; OM File Header - Saved 2022/12/27 18:43:59
; (7.02 :patc (om-make-point 280 110) (om-make-point 50 50) (om-make-point 417 265) "" 908 0 "2022/12/17 04:27:11" "2022/12/17 04:27:17")
; End File Header
(in-package :om)(load-lib-for (quote ("myextension")))(setf *om-current-persistent* (om-load-patch1 "voice-escmotion 2" (quote ((let ((box (om-load-boxcall (quote abstraction) "rule definition" (om-load-patch-abs1 "rule definition" (quote ((let ((box (om-load-boxcall (quote bastype) "aux" (quote t) (quote nil) (om-make-point 21 210) (om-make-point 24 28) (quote t) "t" nil))) (when (fboundp (quote set-active)) (set-active box nil)) box) (let ((box (om-load-boxout "output" 0 (om-make-point 5 240) (quote ((om-load-inputfun (quote input-funbox) "" "out" nil))) nil nil))) (when (fboundp (quote set-active)) (set-active box nil)) box) (let ((box (om-load-boxin "input" 0 (om-make-point 5 45) "" nil nil nil))) (when (fboundp (quote set-active)) (set-active box nil)) box))) (quote ((0 0 1 0 nil 0))) 7.02 nil "" (om-make-point 200 200) (om-make-point 500 400)) (quote ((om-load-inputfun (quote input-funbox) "" "input" nil))) (om-make-point 245 47) (om-make-point 77 66) nil "l" "rule definition"))) (when (fboundp (quote set-active)) (set-active box nil)) box) (let ((box (om-load-boxcall (quote abstraction) "select motion type 2" (om-load-patch-abs1 "select motion type" (quote ((let ((box (om-load-boxcall (quote bastype) "aux" (quote t) (quote nil) (om-make-point 41 210) (om-make-point 31 28) nil "nil" nil))) (when (fboundp (quote set-active)) (set-active box nil)) box) (let ((box (om-load-boxout "output" 0 (om-make-point 5 240) (quote ((om-load-inputfun (quote input-funbox) "" "out" nil))) nil nil))) (when (fboundp (quote set-active)) (set-active box nil)) box) (let ((box (om-load-boxin "input" 0 (om-make-point 5 45) "" nil nil nil))) (when (fboundp (quote set-active)) (set-active box nil)) box))) (quote ((0 0 1 0 nil 0))) 7.02 nil "" (om-make-point 200 200) (om-make-point 500 400)) (quote ((om-load-inputfun (quote input-funbox) "" "input" nil))) (om-make-point 144 36) nil nil "l" "select motion type"))) (when (fboundp (quote set-active)) (set-active box nil)) box) (let ((box (om-load-boxcall (quote abstraction) "mypatch" (om-load-patch-abs1 "mypatch" (quote ((let ((box (om-load-boxin "rule-definition" 2 (om-make-point 217 46) "" "rule-definition" nil nil))) (when (fboundp (quote set-active)) (set-active box nil)) box) (let ((box (om-load-boxin "select-fn" 1 (om-make-point 171 109) "" "select-fn" nil nil))) (when (fboundp (quote set-active)) (set-active box nil)) box) (let ((box (let ((box (om-load-boxcall (quote genfun) "LIST-ELEMENTS" (quote list-elements) (quote ((om-load-inputfun (quote input-funbox) "a list" "LIST" nil))) (om-make-point 83 118) nil nil nil nil 2))) (setf (numouts box) 2) box))) (when (fboundp (quote set-active)) (set-active box nil)) box) (let ((box (om-load-boxwithed1 (quote box-with-win) "OMLOOP" (quote omloop) (quote ((om-load-inputfun (quote input-funbox) "" "voice1" nil) (om-load-inputfun (quote input-funbox) "" "voice2" nil) (om-load-inputfun (quote input-funbox) "" "select-motion-type fn" nil) (om-load-inputfun (quote input-funbox) "" "rule-definition fn" nil))) (om-make-point 53 191) (om-make-point 295 58) nil nil (list (let ((box (om-load-boxcall (quote bastype) "aux" (quote t) (quote nil) (om-make-point 343 266) (om-make-point 26 28) (quote t) "T" nil))) (when (fboundp (quote set-active)) (set-active box nil)) box) (let ((box (om-load-boxcall (quote lispfun) "FUNCALL 2" (quote funcall) (quote ((om-load-inputfun (quote input-funbox) "FUNCTION" "FUNCTION" nil) (om-load-inputfun (quote input-funbox) "add-input" "add-input" nil))) (om-make-point 283 239) nil nil nil nil 1))) (when (fboundp (quote set-active)) (set-active box nil)) box) (let ((box (om-load-boxcall (quote lispfun) "FUNCALL" (quote funcall) (quote ((om-load-inputfun (quote input-funbox) "FUNCTION" "FUNCTION" nil) (om-load-inputfun (quote input-funbox) "add-input" "add-input" nil))) (om-make-point 179 239) nil nil nil nil 1))) (when (fboundp (quote set-active)) (set-active box nil)) box) (let ((box (om-load-boxin "rule-definition fn" 3 (om-make-point 240 175) "" "rule-definition fn" nil nil))) (when (fboundp (quote set-active)) (set-active box nil)) box) (let ((box (om-load-boxin "select-motion-type fn" 2 (om-make-point 125 175) "" "select-motion-type fn" nil nil))) (when (fboundp (quote set-active)) (set-active box nil)) box) (let ((box (om-load-boxcall (quote genfun) "OMIF" (quote omif) (quote ((om-load-inputfun (quote input-funbox) "IF" "TEST" nil) (om-load-inputfun (quote input-funbox) "THEN" "ACTION" nil) (om-load-inputfun (quote input-funbox) "ELSE" "ELSE" nil))) (om-make-point 149 296) (om-make-point 265 56) nil nil nil 1))) (when (fboundp (quote set-active)) (set-active box nil)) box) (let ((box (om-load-boxcall (quote genfun) "collect" (quote listing) (quote ((om-load-inputfun (quote input-funbox) "anything" "DATA" nil))) (om-make-point 142 356) nil nil nil nil 3))) (when (fboundp (quote set-active)) (set-active box nil)) box) (let ((box (om-load-boxcall (quote genfun) "GROUP-BY-MOTION-TYPE" (quote t2l::group-by-motion-type) (quote ((om-load-inputfun (quote input-funbox) "" "VOICE1" nil) (om-load-inputfun (quote input-funbox) "" "VOICE2" nil))) (om-make-point 3 108) nil nil nil nil 1))) (when (fboundp (quote set-active)) (set-active box nil)) box) (let ((box (om-load-boxcall (quote genfun) "OMANDV" (quote t2l::omandv) (quote ((om-load-inputfun (quote input-funbox) "" "XS" nil))) (om-make-point 189 421) nil nil nil nil 1))) (when (fboundp (quote set-active)) (set-active box nil)) box) (let ((box (om-load-boxcall (quote genfun) "inlist" (quote listloop) (quote ((om-load-inputfun (quote input-funbox) "list to iterate" "LIST" nil))) (om-make-point 52 171) nil nil nil nil 1))) (when (fboundp (quote set-active)) (set-active box nil)) box) (let ((box (om-load-boxin "voice2" 1 (om-make-point 78 45) "" "voice2" nil nil))) (when (fboundp (quote set-active)) (set-active box nil)) box) (let ((box (om-load-boxin "voice1" 0 (om-make-point 8 45) "" "voice1" nil nil))) (when (fboundp (quote set-active)) (set-active box nil)) box) (let ((box (om-load-seqbox "finally" (quote finaldo) (quote ((om-load-inputfun (quote input-funbox) "value to return" "VAL" nil))) (om-make-point 192 508) nil nil nil 0))) (when (fboundp (quote set-active)) (set-active box nil)) box) (let ((box (om-load-seqbox "eachTime" (quote loopdo) (quote ((om-load-inputfun (quote input-funbox) "operations to do" "OP" nil))) (om-make-point 92 508) nil nil nil 0))) (when (fboundp (quote set-active)) (set-active box nil)) box)) (quote ((3 0 1 0 nil 0) (9 0 1 1 nil 0) (4 0 2 0 nil 0) (9 0 2 1 nil 0) (2 0 5 0 nil 0) (1 0 5 1 nil 0) (0 0 5 2 nil 0) (5 0 6 0 nil 0) (11 0 7 0 nil 0) (10 0 7 1 nil 0) (6 1 8 0 nil 0) (7 0 9 0 nil 0) (8 0 12 0 nil 0) (6 0 13 0 nil 0))) 1 "omloop" nil))) (when (fboundp (quote set-active)) (set-active box nil)) box) (let ((box (om-load-boxout "output" 0 (om-make-point 5 260) (quote ((om-load-inputfun (quote input-funbox) "" "out" nil))) nil nil))) (when (fboundp (quote set-active)) (set-active box nil)) box) (let ((box (om-load-boxin "input" 0 (om-make-point 7 45) "" nil nil nil))) (when (fboundp (quote set-active)) (set-active box nil)) box))) (quote ((5 0 2 0 nil 0) (2 0 3 0 nil 0) (2 1 3 1 nil 0) (1 0 3 2 nil 0) (0 0 3 3 nil 0) (3 0 4 0 nil 0))) 7.02 nil "" (om-make-point 200 200) (om-make-point 500 400)) (quote ((om-load-inputfun (quote input-funbox) "" "input" nil) (om-load-inputfun (quote input-funbox) "" "input 2" nil) (om-load-inputfun (quote input-funbox) "" "input 3" nil))) (om-make-point 137 161) nil nil nil "mypatch"))) (when (fboundp (quote set-active)) (set-active box nil)) box) (let ((box (om-load-boxcall (quote lispfun) "COMBINATIONS-OF2" (quote t2l::combinations-of2) (quote ((om-load-inputfun (quote input-funbox) "XS" "XS" nil))) (om-make-point 44 93) nil nil nil nil 1))) (when (fboundp (quote set-active)) (set-active box nil)) box) (let ((box (om-load-boxcall (quote abstraction) "select motion type" (om-load-lisp-abspatch "select motion type" 7.02 ";;; Edit a valid LAMBDA EXPRESSION for \"lispfunction\"$;;; e.g. (lambda (arg1 arg2 ...) ( ... ))$$(lambda (input)$  ;; filter-by-motion-type$  T)") (quote ((om-load-inputfun (quote input-funbox) "" "INPUT" nil))) (om-make-point 384 140) nil nil "l" "select motion type"))) (when (fboundp (quote set-active)) (set-active box nil)) box) (let ((box (om-load-boxout "output" 0 (om-make-point 5 290) (quote ((om-load-inputfun (quote input-funbox) "" "out" nil))) nil nil))) (when (fboundp (quote set-active)) (set-active box nil)) box) (let ((box (om-load-boxin "sequence" 0 (om-make-point 21 27) "" "sequence" nil nil))) (when (fboundp (quote set-active)) (set-active box nil)) box))) (quote ((3 0 2 0 nil 0) (1 0 2 1 nil 0) (0 0 2 2 nil 0) (6 0 3 0 nil 0) (2 0 5 0 nil 0))) nil 7.02))
